<svg xmlns="http://www.w3.org/2000/svg" xmlns:xlink="http://www.w3.org/1999/xlink" width="1252" height="696" viewBox="0 0 1252 696">
  <defs>
    <path id="buick-a" d="M15.2622088,0 L332.737791,0 C341.166876,0 348,6.83014038 348,15.2598865 L348,470.977269 C348,479.405071 341.166684,486.237155 332.737791,486.237155 L15.2622088,486.237155 C6.83312361,486.237155 0,479.407015 0,470.977269 L0,15.2598865 C0,6.83208392 6.83331551,0 15.2622088,0 Z"/>
    <path id="buick-c" d="M6.30321167,9.13660227 C11.352828,3.52658061 18.6654092,0 34.6823533,0 L651.169011,0 C665.19445,0 670.825331,2.90145072 675.832428,8.01896411 C680.708844,13.0029152 683.486359,20.1028876 683.486359,35.5265803 L683.486359,438.209146 C683.486359,452.303271 681.448124,458.025085 678.006554,462.634759 C672.975316,469.37365 664.94493,473.735726 655.89902,473.735726 L26.7990043,473.735726 C18.258991,473.735726 10.6253075,469.848426 5.56499151,463.744682 C1.59729901,458.958858 0,452.810406 0,438.209146 L0,35.5265803 C0,20.518554 1.89523541,14.0337747 6.30321167,9.13660227 Z"/>
    <path id="buick-d" d="M0,14.2120718 L0,-1.137e-13 L838,-1.137e-13 L838,14.2120718 C838,14.3049838 833.919456,26.0554649 781.239887,26.0554649 L45.7234243,26.0554649 C14.5696155,26.0554649 0,16.773514 0,14.2120718 Z"/>
    <linearGradient id="buick-g" x1="0%" y1="50%" y2="50%">
      <stop offset="0%" stop-color="#CFD3D8"/>
      <stop offset="12.576%" stop-color="#ECEDF0"/>
      <stop offset="93.342%" stop-color="#F0F1F2"/>
      <stop offset="100%" stop-color="#FBFEFF"/>
    </linearGradient>
    <path id="buick-f" d="M1.25729218,56.4168968 L0.376559021,56.4160757 L0,56.0049016 L1.74263895e-14,44.5490547 L0.352450523,44.1969873 L1.1990217,44.1969873 C1.1781046,44.1257369 1.15577721,44.0629094 1.13194444,44.0099644 L1.13194444,28.3334974 C1.13194444,9.8566179 10.9847698,0 29.4433431,0 L133.933972,0 C152.392545,0 162.24537,9.8566179 162.24537,28.3334974 L162.24537,74.8916281 C162.152527,74.9901886 162.070802,75.1594436 162.007366,75.3778586 C162.871943,75.5875942 163,75.524721 163,75.524721 L163,112.289954 C163,112.289954 162.733751,112.692436 162.024481,112.798993 C162.085229,112.990223 162.160673,113.138969 162.24537,113.228882 L162.24537,297.666503 C162.24537,316.139171 152.39358,326 133.933972,326 L91.359393,326 C90.9649887,325.78997 90.2517858,325.643857 89.4236111,325.62445 L74.3310185,325.622248 C74.2687537,325.622991 74.205839,325.622248 74.1423611,325.622248 C73.234573,325.622248 72.4419791,325.774179 72.0179222,326 L29.4433431,326 C10.9837353,326 1.13194444,316.141266 1.13194444,297.668598 L1.13194444,121.205342 C1.20293852,121.162157 1.26743137,121.091861 1.32221732,120.991731 C0.840723376,120.826902 0.525755875,120.696779 0.377314815,120.601363 L0.377314815,97.8129553 C0.733025427,97.7216836 1.06612366,97.6544058 1.37660952,97.6111217 C1.37914332,97.6145166 1.38165549,97.6179334 1.38414622,97.6213719 C1.31891853,97.4505966 1.2318715,97.3555414 1.13194444,97.308499 L1.13194444,91.3629315 C1.2032647,91.319548 1.26802385,91.2488043 1.32297184,91.1479392 C0.742521425,91.0401598 0.427302417,90.9102094 0.377314815,90.7580882 L0.377314815,67.9696805 C0.730426542,67.8580289 1.05858293,67.7765327 1.36178398,67.7251918 C1.29956429,67.5878065 1.22085239,67.5079438 1.13194444,67.4660888 L1.13194444,56.8675841 C1.18247226,56.7594778 1.22335931,56.605067 1.25729218,56.4168968 Z"/>
    <path id="buick-i" d="M29.4305556,0 C30.4724816,2.68408959e-15 31.3171296,0.845626718 31.3171296,1.88876014 L31.3171296,3.02201622 C31.3171296,7.61180327 35.0335808,11.3325608 39.6180556,11.3325608 L101.875,11.3325608 C106.459475,11.3325608 110.175926,7.61180327 110.175926,3.02201622 L110.175926,1.88876014 C110.175926,0.845626718 111.020574,0 112.0625,0 L126.777778,0 C134.904801,0 141.493056,6.5958884 141.493056,14.7323291 L141.493056,292.002317 C141.493056,300.138758 134.904801,306.734647 126.777778,306.734647 L14.7152778,306.734647 C6.58825427,306.734647 1.3404915e-15,300.138758 0,292.002317 L0,14.7323291 C-1.3404915e-15,6.5958884 6.58825427,0 14.7152778,0 L29.4305556,0 Z"/>
  </defs>
  <g fill="none" fill-rule="evenodd">
    <g transform="rotate(-90 318 158.5)">
      <g transform="translate(0 .305)">
        <mask id="buick-b" fill="#fff">
          <use xlink:href="#buick-a"/>
        </mask>
        <use stroke="#979797" xlink:href="#buick-a"/>
        <g stroke="#979797" stroke-linecap="round" stroke-linejoin="round" mask="url(#buick-b)">
          <ellipse cx="1.221" cy="1.221" rx="1.221" ry="1.221" transform="translate(166.063 16.477)"/>
        </g>
        <g stroke="#979797" mask="url(#buick-b)">
          <ellipse cx="2.595" cy="2.594" rx="2.595" ry="2.594" transform="translate(171.558 14.952)"/>
        </g>
        <g fill-rule="nonzero" stroke="#979797" mask="url(#buick-b)">
          <path d="M17.0947368,8.54385965 C17.0947368,3.82521603 13.2679499,0 8.54736842,0 C3.82678696,0 0,3.82521603 0,8.54385965 C0,13.2625033 3.82678696,17.0877193 8.54736842,17.0877193 C13.2679499,17.0877193 17.0947368,13.2625033 17.0947368,8.54385965 Z" transform="translate(165.357 461.293)"/>
        </g>
      </g>
      <rect width="314.032" height="418.259" x="16.984" y="34.37" stroke="#979797" rx="2"/>
    </g>
    <g transform="translate(-116.774 -167.711)">
      <g transform="translate(525.031 248.711)">
        <use fill-rule="nonzero" stroke="#979797" xlink:href="#buick-c"/>
        <g stroke="#979797" transform="translate(338.984 13.423)">
          <ellipse cx="3.153" cy="3.158" rx="3.153" ry="3.158"/>
        </g>
      </g>
      <g transform="translate(447.774 706.656)">
        <mask id="buick-e" fill="#fff">
          <use xlink:href="#buick-d"/>
        </mask>
        <use stroke="#979797" xlink:href="#buick-d"/>
        <path stroke="#979797" d="M838,0 L838,13.42709 C838,14.7327469 836.944777,15.7911909 835.633091,15.7911909 L1.57814811,15.7911909 C0.706560974,15.7911909 0,15.0819987 0,14.2193396 L0,0 L838,0 Z" mask="url(#buick-e)"/>
        <path stroke="#979797" d="M360.26905,1.137e-13 L476.942615,1.23517776e-13 C476.942615,2.36867863 475.923323,9.47471452 468.270931,9.47471452 L368.940734,9.47471452 C362.632002,9.47471452 360.26905,3.15823817 360.26905,1.137e-13 Z" mask="url(#buick-e)"/>
      </g>
      <polygon stroke="#979797" points="0 0 637.763 0 637.763 399.517 0 399.517" transform="translate(547.893 277.925)"/>
    </g>
    <g transform="translate(137 287)">
      <mask id="buick-h" fill="#fff">
        <use xlink:href="#buick-f"/>
      </mask>
      <use fill="url(#buick-g)" fill-opacity="0" xlink:href="#buick-f"/>
      <path stroke="#979797" d="M133.933972,0.5 L29.4433431,0.5 C11.2595432,0.5 1.63194444,10.1341303 1.63194444,28.3334974 L1.63194444,297.668598 C1.63194444,315.865196 11.2599502,325.5 29.4433431,325.5 L133.933972,325.5 C152.116846,325.5 161.74537,315.86362 161.74537,297.666503 L161.74537,28.3334974 C161.74537,10.1341303 152.117772,0.5 133.933972,0.5 Z" mask="url(#buick-h)"/>
      <g stroke="#979797" mask="url(#buick-h)">
        <path d="M0.5,1.3221321 C0.5,1.77618312 0.868081078,2.14426419 1.3221321,2.14426419 L18.2982383,2.14426419 C18.7522893,2.14426419 19.1203704,1.77618312 19.1203704,1.3221321 C19.1203704,0.868081078 18.7522893,0.5 18.2982383,0.5 L1.3221321,0.5 C0.868081078,0.5 0.5,0.868081078 0.5,1.3221321 Z" transform="translate(71.69 11.71)"/>
      </g>
      <g stroke="#979797" mask="url(#buick-h)">
        <ellipse cx="2.264" cy="2.455" rx="2.264" ry="2.267" transform="translate(96.593 10.577)"/>
      </g>
      <g transform="translate(10.942 9.822)">
        <use stroke="#979797" xlink:href="#buick-i"/>
      </g>
    </g>
  </g>
</svg>
