<svg xmlns="http://www.w3.org/2000/svg" xmlns:xlink="http://www.w3.org/1999/xlink" width="1252" height="650" viewBox="0 0 1252 650">
  <defs>
    <path id="calendar-a" d="M15.2622088,0 L332.737791,0 C341.166876,0 348,6.83014038 348,15.2598865 L348,470.977269 C348,479.405071 341.166684,486.237155 332.737791,486.237155 L15.2622088,486.237155 C6.83312361,486.237155 0,479.407015 0,470.977269 L0,15.2598865 C0,6.83208392 6.83331551,0 15.2622088,0 Z"/>
    <path id="calendar-c" d="M6.30321167,9.13660227 C11.352828,3.52658061 18.6654092,0 34.6823533,0 L651.169011,0 C665.19445,0 670.825331,2.90145072 675.832428,8.01896411 C680.708844,13.0029152 683.486359,20.1028876 683.486359,35.5265803 L683.486359,438.209146 C683.486359,452.303271 681.448124,458.025085 678.006554,462.634759 C672.975316,469.37365 664.94493,473.735726 655.89902,473.735726 L26.7990043,473.735726 C18.258991,473.735726 10.6253075,469.848426 5.56499151,463.744682 C1.59729901,458.958858 0,452.810406 0,438.209146 L0,35.5265803 C0,20.518554 1.89523541,14.0337747 6.30321167,9.13660227 Z"/>
    <path id="calendar-d" d="M0,14.2120718 L0,-1.137e-13 L838,-1.137e-13 L838,14.2120718 C838,14.3049838 833.919456,26.0554649 781.239887,26.0554649 L45.7234243,26.0554649 C14.5696155,26.0554649 0,16.773514 0,14.2120718 Z"/>
  </defs>
  <g fill="none" fill-rule="evenodd">
    <g transform="rotate(-90 318.625 158.375)">
      <g transform="translate(0 .305)">
        <mask id="calendar-b" fill="#fff">
          <use xlink:href="#calendar-a"/>
        </mask>
        <use stroke="#979797" xlink:href="#calendar-a"/>
        <g stroke="#979797" stroke-linecap="round" stroke-linejoin="round" mask="url(#calendar-b)">
          <ellipse cx="1.221" cy="1.221" rx="1.221" ry="1.221" transform="translate(166.063 16.477)"/>
        </g>
        <g stroke="#979797" mask="url(#calendar-b)">
          <ellipse cx="2.595" cy="2.594" rx="2.595" ry="2.594" transform="translate(171.558 14.952)"/>
        </g>
        <g fill-rule="nonzero" stroke="#979797" mask="url(#calendar-b)">
          <path d="M17.0947368,8.54385965 C17.0947368,3.82521603 13.2679499,0 8.54736842,0 C3.82678696,0 0,3.82521603 0,8.54385965 C0,13.2625033 3.82678696,17.0877193 8.54736842,17.0877193 C13.2679499,17.0877193 17.0947368,13.2625033 17.0947368,8.54385965 Z" transform="translate(165.357 461.293)"/>
        </g>
      </g>
      <rect width="314.032" height="418.259" x="16.984" y="34.37" stroke="#979797" rx="2"/>
    </g>
    <g transform="translate(-116.524 -167.711)">
      <g transform="translate(525.031 248.711)">
        <use fill-rule="nonzero" stroke="#979797" xlink:href="#calendar-c"/>
        <g stroke="#979797" transform="translate(338.984 13.423)">
          <ellipse cx="3.153" cy="3.158" rx="3.153" ry="3.158"/>
        </g>
      </g>
      <g transform="translate(447.774 706.656)">
        <mask id="calendar-e" fill="#fff">
          <use xlink:href="#calendar-d"/>
        </mask>
        <use stroke="#979797" xlink:href="#calendar-d"/>
        <path stroke="#979797" d="M838,0 L838,13.42709 C838,14.7327469 836.944777,15.7911909 835.633091,15.7911909 L1.57814811,15.7911909 C0.706560974,15.7911909 0,15.0819987 0,14.2193396 L0,0 L838,0 Z" mask="url(#calendar-e)"/>
        <path stroke="#979797" d="M360.26905,1.137e-13 L476.942615,1.23517776e-13 C476.942615,2.36867863 475.923323,9.47471452 468.270931,9.47471452 L368.940734,9.47471452 C362.632002,9.47471452 360.26905,3.15823817 360.26905,1.137e-13 Z" mask="url(#calendar-e)"/>
      </g>
      <polygon stroke="#979797" points="0 0 637.763 0 637.763 399.517 0 399.517" transform="translate(547.893 277.925)"/>
    </g>
  </g>
</svg>
