<svg xmlns="http://www.w3.org/2000/svg" xmlns:xlink="http://www.w3.org/1999/xlink" width="1253" height="682" viewBox="0 0 1253 682">
  <defs>
    <linearGradient id="cocktail-b" x1="0%" y1="50%" y2="50%">
      <stop offset="0%" stop-color="#CFD3D8"/>
      <stop offset="12.576%" stop-color="#ECEDF0"/>
      <stop offset="93.342%" stop-color="#F0F1F2"/>
      <stop offset="100%" stop-color="#FBFEFF"/>
    </linearGradient>
    <path id="cocktail-a" d="M2.00549674,89.2979102 L0.600646292,89.2966105 L0,88.6457952 L2.7796695e-14,70.5132277 L0.562191018,69.9559676 L1.91254994,69.9559676 C1.87918525,69.843191 1.84357101,69.7437462 1.80555556,69.6599436 L1.80555556,44.8468855 C1.80555556,15.6012725 17.5217188,0 46.9648417,0 L213.63701,0 C243.080133,0 258.796296,15.6012725 258.796296,44.8468855 L258.796296,118.540123 C258.648202,118.696127 258.517844,118.964027 258.416657,119.309739 C259.795738,119.641714 260,119.542196 260,119.542196 L260,177.735019 C260,177.735019 259.575308,178.372077 258.443958,178.540738 C258.540856,178.843421 258.661196,179.078859 258.796296,179.221175 L258.796296,471.153114 C258.796296,500.392061 243.081783,516 213.63701,516 L145.726639,516 C145.097528,515.66756 143.959904,515.436289 142.638889,515.405571 L118.564815,515.402086 C118.465497,515.403262 118.365142,515.402086 118.263889,515.402086 C116.815883,515.402086 115.551623,515.642566 114.875213,516 L46.9648417,516 C17.5200686,516 1.80555556,500.395378 1.80555556,471.156431 L1.80555556,191.846492 C1.91879764,191.778137 2.02166968,191.666872 2.1090583,191.508385 C1.34103115,191.247488 0.838629002,191.041527 0.601851852,190.890501 L0.601851852,154.820506 C1.16924301,154.676039 1.70056535,154.56955 2.19581887,154.501039 C2.19986051,154.506413 2.20386765,154.511821 2.20784059,154.517264 C2.10379642,154.246957 1.96494841,154.096501 1.80555556,154.022041 L1.80555556,144.611266 C1.91931792,144.542597 2.02261473,144.430623 2.11026183,144.270971 C1.18439,144.100376 0.681586678,143.894687 0.601851852,143.653906 L0.601851852,107.583911 C1.16509755,107.407187 1.68853719,107.278193 2.17217076,107.196929 C2.07292464,106.979473 1.94737192,106.853064 1.80555556,106.786815 L1.80555556,90.0112681 C1.88615207,89.840155 1.95137067,89.5957503 2.00549674,89.2979102 Z"/>
    <path id="cocktail-d" d="M46.9444444,0 C48.6064124,4.24843629e-15 49.9537037,1.33847665 49.9537037,2.98957126 L49.9537037,4.78331402 C49.9537037,12.0481303 55.8817853,17.9374276 63.1944444,17.9374276 L162.5,17.9374276 C169.812659,17.9374276 175.740741,12.0481303 175.740741,4.78331402 L175.740741,2.98957126 C175.740741,1.33847665 177.088032,0 178.75,0 L202.222222,0 C215.185573,0 225.694444,10.4401178 225.694444,23.3186559 L225.694444,462.187717 C225.694444,475.066255 215.185573,485.506373 202.222222,485.506373 L23.4722222,485.506373 C10.5088718,485.506373 2.13820731e-15,475.066255 0,462.187717 L0,23.3186559 C-2.13820731e-15,10.4401178 10.5088718,0 23.4722222,0 L46.9444444,0 Z"/>
    <path id="cocktail-e" d="M2.00549674,89.2979102 L0.600646292,89.2966105 L0,88.6457952 L2.7796695e-14,70.5132277 L0.562191018,69.9559676 L1.91254994,69.9559676 C1.87918525,69.843191 1.84357101,69.7437462 1.80555556,69.6599436 L1.80555556,44.8468855 C1.80555556,15.6012725 17.5217188,0 46.9648417,0 L213.63701,0 C243.080133,0 258.796296,15.6012725 258.796296,44.8468855 L258.796296,118.540123 C258.648202,118.696127 258.517844,118.964027 258.416657,119.309739 C259.795738,119.641714 260,119.542196 260,119.542196 L260,177.735019 C260,177.735019 259.575308,178.372077 258.443958,178.540738 C258.540856,178.843421 258.661196,179.078859 258.796296,179.221175 L258.796296,471.153114 C258.796296,500.392061 243.081783,516 213.63701,516 L145.726639,516 C145.097528,515.66756 143.959904,515.436289 142.638889,515.405571 L118.564815,515.402086 C118.465497,515.403262 118.365142,515.402086 118.263889,515.402086 C116.815883,515.402086 115.551623,515.642566 114.875213,516 L46.9648417,516 C17.5200686,516 1.80555556,500.395378 1.80555556,471.156431 L1.80555556,191.846492 C1.91879764,191.778137 2.02166968,191.666872 2.1090583,191.508385 C1.34103115,191.247488 0.838629002,191.041527 0.601851852,190.890501 L0.601851852,154.820506 C1.16924301,154.676039 1.70056535,154.56955 2.19581887,154.501039 C2.19986051,154.506413 2.20386765,154.511821 2.20784059,154.517264 C2.10379642,154.246957 1.96494841,154.096501 1.80555556,154.022041 L1.80555556,144.611266 C1.91931792,144.542597 2.02261473,144.430623 2.11026183,144.270971 C1.18439,144.100376 0.681586678,143.894687 0.601851852,143.653906 L0.601851852,107.583911 C1.16509755,107.407187 1.68853719,107.278193 2.17217076,107.196929 C2.07292464,106.979473 1.94737192,106.853064 1.80555556,106.786815 L1.80555556,90.0112681 C1.88615207,89.840155 1.95137067,89.5957503 2.00549674,89.2979102 Z"/>
    <path id="cocktail-g" d="M46.9444444,0 C48.6064124,4.24843629e-15 49.9537037,1.33847665 49.9537037,2.98957126 L49.9537037,4.78331402 C49.9537037,12.0481303 55.8817853,17.9374276 63.1944444,17.9374276 L162.5,17.9374276 C169.812659,17.9374276 175.740741,12.0481303 175.740741,4.78331402 L175.740741,2.98957126 C175.740741,1.33847665 177.088032,0 178.75,0 L202.222222,0 C215.185573,0 225.694444,10.4401178 225.694444,23.3186559 L225.694444,462.187717 C225.694444,475.066255 215.185573,485.506373 202.222222,485.506373 L23.4722222,485.506373 C10.5088718,485.506373 2.13820731e-15,475.066255 0,462.187717 L0,23.3186559 C-2.13820731e-15,10.4401178 10.5088718,0 23.4722222,0 L46.9444444,0 Z"/>
    <path id="cocktail-h" d="M2.00549674,89.2979102 L0.600646292,89.2966105 L0,88.6457952 L2.7796695e-14,70.5132277 L0.562191018,69.9559676 L1.91254994,69.9559676 C1.87918525,69.843191 1.84357101,69.7437462 1.80555556,69.6599436 L1.80555556,44.8468855 C1.80555556,15.6012725 17.5217188,0 46.9648417,0 L213.63701,0 C243.080133,0 258.796296,15.6012725 258.796296,44.8468855 L258.796296,118.540123 C258.648202,118.696127 258.517844,118.964027 258.416657,119.309739 C259.795738,119.641714 260,119.542196 260,119.542196 L260,177.735019 C260,177.735019 259.575308,178.372077 258.443958,178.540738 C258.540856,178.843421 258.661196,179.078859 258.796296,179.221175 L258.796296,471.153114 C258.796296,500.392061 243.081783,516 213.63701,516 L145.726639,516 C145.097528,515.66756 143.959904,515.436289 142.638889,515.405571 L118.564815,515.402086 C118.465497,515.403262 118.365142,515.402086 118.263889,515.402086 C116.815883,515.402086 115.551623,515.642566 114.875213,516 L46.9648417,516 C17.5200686,516 1.80555556,500.395378 1.80555556,471.156431 L1.80555556,191.846492 C1.91879764,191.778137 2.02166968,191.666872 2.1090583,191.508385 C1.34103115,191.247488 0.838629002,191.041527 0.601851852,190.890501 L0.601851852,154.820506 C1.16924301,154.676039 1.70056535,154.56955 2.19581887,154.501039 C2.19986051,154.506413 2.20386765,154.511821 2.20784059,154.517264 C2.10379642,154.246957 1.96494841,154.096501 1.80555556,154.022041 L1.80555556,144.611266 C1.91931792,144.542597 2.02261473,144.430623 2.11026183,144.270971 C1.18439,144.100376 0.681586678,143.894687 0.601851852,143.653906 L0.601851852,107.583911 C1.16509755,107.407187 1.68853719,107.278193 2.17217076,107.196929 C2.07292464,106.979473 1.94737192,106.853064 1.80555556,106.786815 L1.80555556,90.0112681 C1.88615207,89.840155 1.95137067,89.5957503 2.00549674,89.2979102 Z"/>
    <path id="cocktail-j" d="M46.9444444,0 C48.6064124,4.24843629e-15 49.9537037,1.33847665 49.9537037,2.98957126 L49.9537037,4.78331402 C49.9537037,12.0481303 55.8817853,17.9374276 63.1944444,17.9374276 L162.5,17.9374276 C169.812659,17.9374276 175.740741,12.0481303 175.740741,4.78331402 L175.740741,2.98957126 C175.740741,1.33847665 177.088032,0 178.75,0 L202.222222,0 C215.185573,0 225.694444,10.4401178 225.694444,23.3186559 L225.694444,462.187717 C225.694444,475.066255 215.185573,485.506373 202.222222,485.506373 L23.4722222,485.506373 C10.5088718,485.506373 2.13820731e-15,475.066255 0,462.187717 L0,23.3186559 C-2.13820731e-15,10.4401178 10.5088718,0 23.4722222,0 L46.9444444,0 Z"/>
  </defs>
  <g fill="none" fill-rule="evenodd">
    <g transform="translate(790.569 81)">
      <mask id="cocktail-c" fill="#fff">
        <use xlink:href="#cocktail-a"/>
      </mask>
      <use fill="url(#cocktail-b)" fill-opacity="0" xlink:href="#cocktail-a"/>
      <path stroke="#979797" d="M213.63701,0.5 L46.9648417,0.5 C17.794771,0.5 2.30555556,15.880495 2.30555556,44.8468855 L2.30555556,471.156431 C2.30555556,500.118437 17.7954183,515.5 46.9648417,515.5 L213.63701,515.5 C242.805614,515.5 258.296296,500.115935 258.296296,471.153114 L258.296296,44.8468855 C258.296296,15.880495 242.807081,0.5 213.63701,0.5 Z" mask="url(#cocktail-c)"/>
      <g stroke="#979797" mask="url(#cocktail-c)">
        <path d="M0.5,2.09269988 C0.5,2.97232374 1.21307603,3.68539977 2.09269988,3.68539977 L29.2035964,3.68539977 C30.0832203,3.68539977 30.7962963,2.97232374 30.7962963,2.09269988 C30.7962963,1.21307603 30.0832203,0.5 29.2035964,0.5 L2.09269988,0.5 C1.21307603,0.5 0.5,1.21307603 0.5,2.09269988 Z" transform="translate(114.352 18.535)"/>
      </g>
      <g stroke="#979797" mask="url(#cocktail-c)">
        <ellipse cx="3.611" cy="3.886" rx="3.611" ry="3.587" transform="translate(154.074 16.742)"/>
      </g>
      <g transform="translate(17.454 15.546)">
        <use stroke="#979797" xlink:href="#cocktail-d"/>
      </g>
    </g>
    <g transform="translate(480.119 81)">
      <mask id="cocktail-f" fill="#fff">
        <use xlink:href="#cocktail-e"/>
      </mask>
      <use fill="url(#cocktail-b)" fill-opacity="0" xlink:href="#cocktail-e"/>
      <path stroke="#979797" d="M213.63701,0.5 L46.9648417,0.5 C17.794771,0.5 2.30555556,15.880495 2.30555556,44.8468855 L2.30555556,471.156431 C2.30555556,500.118437 17.7954183,515.5 46.9648417,515.5 L213.63701,515.5 C242.805614,515.5 258.296296,500.115935 258.296296,471.153114 L258.296296,44.8468855 C258.296296,15.880495 242.807081,0.5 213.63701,0.5 Z" mask="url(#cocktail-f)"/>
      <g stroke="#979797" mask="url(#cocktail-f)">
        <path d="M0.5,2.09269988 C0.5,2.97232374 1.21307603,3.68539977 2.09269988,3.68539977 L29.2035964,3.68539977 C30.0832203,3.68539977 30.7962963,2.97232374 30.7962963,2.09269988 C30.7962963,1.21307603 30.0832203,0.5 29.2035964,0.5 L2.09269988,0.5 C1.21307603,0.5 0.5,1.21307603 0.5,2.09269988 Z" transform="translate(114.352 18.535)"/>
      </g>
      <g stroke="#979797" mask="url(#cocktail-f)">
        <ellipse cx="3.611" cy="3.886" rx="3.611" ry="3.587" transform="translate(154.074 16.742)"/>
      </g>
      <g transform="translate(17.454 15.546)">
        <use stroke="#979797" xlink:href="#cocktail-g"/>
      </g>
    </g>
    <g transform="translate(169 81)">
      <mask id="cocktail-i" fill="#fff">
        <use xlink:href="#cocktail-h"/>
      </mask>
      <use fill="url(#cocktail-b)" fill-opacity="0" xlink:href="#cocktail-h"/>
      <path stroke="#979797" d="M213.63701,0.5 L46.9648417,0.5 C17.794771,0.5 2.30555556,15.880495 2.30555556,44.8468855 L2.30555556,471.156431 C2.30555556,500.118437 17.7954183,515.5 46.9648417,515.5 L213.63701,515.5 C242.805614,515.5 258.296296,500.115935 258.296296,471.153114 L258.296296,44.8468855 C258.296296,15.880495 242.807081,0.5 213.63701,0.5 Z" mask="url(#cocktail-i)"/>
      <g stroke="#979797" mask="url(#cocktail-i)">
        <path d="M0.5,2.09269988 C0.5,2.97232374 1.21307603,3.68539977 2.09269988,3.68539977 L29.2035964,3.68539977 C30.0832203,3.68539977 30.7962963,2.97232374 30.7962963,2.09269988 C30.7962963,1.21307603 30.0832203,0.5 29.2035964,0.5 L2.09269988,0.5 C1.21307603,0.5 0.5,1.21307603 0.5,2.09269988 Z" transform="translate(114.352 18.535)"/>
      </g>
      <g stroke="#979797" mask="url(#cocktail-i)">
        <ellipse cx="3.611" cy="3.886" rx="3.611" ry="3.587" transform="translate(154.074 16.742)"/>
      </g>
      <g transform="translate(17.454 15.546)">
        <use stroke="#979797" xlink:href="#cocktail-j"/>
      </g>
    </g>
  </g>
</svg>
