<svg xmlns="http://www.w3.org/2000/svg" xmlns:xlink="http://www.w3.org/1999/xlink" width="1252" height="621" viewBox="0 0 1252 621">
  <defs>
    <path id="form-management-a" d="M4.38516993,6.36164249 C7.89820853,2.45549105 12.9856009,0 24.1286539,0 L453.020923,0 C462.778477,0 466.695905,2.02022499 470.179362,5.58345228 C473.571905,9.0536827 475.504233,13.9972585 475.504233,24.7364826 L475.504233,305.116699 C475.504233,314.93017 474.086225,318.91416 471.69191,322.123789 C468.191658,326.815951 462.604885,329.853181 456.31161,329.853181 L18.644176,329.853181 C12.7028542,329.853181 7.39206953,327.146528 3.87158717,322.896607 C1.1112474,319.564329 0,315.283278 0,305.116699 L0,24.7364826 C0,14.2866791 1.31852296,9.7714506 4.38516993,6.36164249 Z"/>
    <path id="form-management-b" d="M0,9.89559543 L0,-1.137e-13 L583,-1.137e-13 L583,9.89559543 C583,9.96028831 580.161149,18.141925 543.511759,18.141925 L31.8099718,18.141925 C10.1361406,18.141925 0,11.6790789 0,9.89559543 Z"/>
    <path id="form-management-d" d="M19.9548994,0 L435.045101,0 C446.065887,0 455,8.93387972 455,19.9600569 L455,616.042136 C455,627.065771 446.065636,636.002193 435.045101,636.002193 L19.9548994,636.002193 C8.93411277,636.002193 0,627.068313 0,616.042136 L0,19.9600569 C0,8.93642188 8.93436366,0 19.9548994,0 Z"/>
  </defs>
  <g fill="none" fill-rule="evenodd">
    <g transform="translate(249.349 -39.998)">
      <g transform="translate(365.266 173.173)">
        <use fill-rule="nonzero" stroke="#979797" xlink:href="#form-management-a"/>
        <g stroke="#979797" transform="translate(235.833 9.346)">
          <ellipse cx="2.194" cy="2.199" rx="2.194" ry="2.199"/>
        </g>
      </g>
      <g transform="translate(311.518 492.031)">
        <mask id="form-management-c" fill="#fff">
          <use xlink:href="#form-management-b"/>
        </mask>
        <use stroke="#979797" xlink:href="#form-management-b"/>
        <path stroke="#979797" d="M583,0 L583,9.34902757 C583,10.2581316 582.265877,10.995106 581.353332,10.995106 L1.09792404,10.995106 C0.491557337,10.995106 0,10.501309 0,9.90065586 L0,0 L583,0 Z" mask="url(#form-management-c)"/>
        <path stroke="#979797" d="M250.64064,1.137e-13 L331.810913,1.20535931e-13 C331.810913,1.64926591 331.101787,6.59706362 325.777987,6.59706362 L256.673565,6.59706362 C252.284555,6.59706362 250.64064,2.19902121 250.64064,1.137e-13 Z" mask="url(#form-management-c)"/>
      </g>
      <polygon stroke="#979797" points="0 0 443.694 0 443.694 278.176 0 278.176" transform="translate(381.171 193.514)"/>
    </g>
    <g transform="rotate(-90 348.617 187.617)">
      <g transform="translate(0 .4)">
        <mask id="form-management-e" fill="#fff">
          <use xlink:href="#form-management-d"/>
        </mask>
        <use stroke="#979797" xlink:href="#form-management-d"/>
        <g stroke="#979797" stroke-linecap="round" stroke-linejoin="round" mask="url(#form-management-e)">
          <circle cx="1.596" cy="1.596" r="1.596" transform="translate(217.123 21.553)"/>
        </g>
        <g stroke="#979797" mask="url(#form-management-e)">
          <circle cx="3.393" cy="3.393" r="3.393" transform="translate(224.307 19.557)"/>
        </g>
        <g fill-rule="nonzero" stroke="#979797" mask="url(#form-management-e)">
          <path d="M22.3508772,11.1754386 C22.3508772,5.00341398 17.3474632,0 11.1754386,0 C5.00341398,0 0,5.00341398 0,11.1754386 C0,17.3474632 5.00341398,22.3508772 11.1754386,22.3508772 C17.3474632,22.3508772 22.3508772,17.3474632 22.3508772,11.1754386 Z" transform="translate(216.2 603.375)"/>
        </g>
      </g>
      <rect width="410.895" height="547.395" x="22.053" y="44.803" stroke="#979797" rx="2"/>
    </g>
  </g>
</svg>
