<svg xmlns="http://www.w3.org/2000/svg" xmlns:xlink="http://www.w3.org/1999/xlink" width="1252" height="808" viewBox="0 0 1252 808">
  <defs>
    <path id="mywu-a" d="M6.378429,9.24986593 C11.4883033,3.57029855 18.8881468,0 35.0962238,0 L658.939524,0 C673.132331,0 678.830407,2.93741912 683.897254,8.11837276 C688.831862,13.1641084 691.642521,20.3520969 691.642521,35.9669925 L691.642521,443.64149 C691.642521,457.910336 689.579964,463.703082 686.097324,468.369901 C681.006047,475.192332 672.879833,479.608483 663.725977,479.608483 L27.1188015,479.608483 C18.4768788,479.608483 10.7521011,475.672993 5.63139953,469.493583 C1.61635985,464.648431 0,458.423758 0,443.64149 L0,35.9669925 C0,20.7729162 1.91785158,14.2077472 6.378429,9.24986593 Z"/>
    <path id="mywu-b" d="M0,14.3882545 L0,-1.137e-13 L848,-1.137e-13 L848,14.3882545 C848,14.4823183 843.870762,26.3784666 790.562559,26.3784666 L46.2690499,26.3784666 C14.7434772,26.3784666 0,16.9814501 0,14.3882545 Z"/>
    <path id="mywu-d" d="M18.2883364,0 L398.711664,0 C408.812033,0 417,8.20458341 417,18.3306645 L417,565.752982 C417,575.876729 408.811803,584.083647 398.711664,584.083647 L18.2883364,584.083647 C8.18796709,584.083647 0,575.879063 0,565.752982 L0,18.3306645 C0,8.20691805 8.18819703,0 18.2883364,0 Z"/>
    <linearGradient id="mywu-g" x1="0%" y1="50%" y2="50%">
      <stop offset="0%" stop-color="#CFD3D8"/>
      <stop offset="12.576%" stop-color="#ECEDF0"/>
      <stop offset="93.342%" stop-color="#F0F1F2"/>
      <stop offset="100%" stop-color="#FBFEFF"/>
    </linearGradient>
    <path id="mywu-f" d="M1.48098221,66.2812008 L0.443554185,66.2802361 L0,65.7971697 L2.05267901e-14,52.3383066 L0.415156444,51.9246813 L1.41234457,51.9246813 C1.38770603,51.8409732 1.36140628,51.7671605 1.33333333,51.7049582 L1.33333333,33.2875139 C1.33333333,11.5800143 12.9391154,0 34.6817293,0 L157.762715,0 C179.505329,0 191.111111,11.5800143 191.111111,33.2875139 L191.111111,87.9861766 C191.001749,88.1019701 190.905485,88.3008187 190.830762,88.5574228 C191.84916,88.80383 192,88.7299636 192,88.7299636 L192,131.923473 C192,131.923473 191.686381,132.396328 190.850923,132.521517 C190.922478,132.746182 191.011345,132.920936 191.111111,133.02657 L191.111111,349.712486 C191.111111,371.415038 179.506548,383 157.762715,383 L107.613518,383 C107.148944,382.753247 106.308852,382.581587 105.333333,382.558786 L87.5555556,382.556199 C87.482213,382.557072 87.4081049,382.556199 87.3333333,382.556199 C86.2640369,382.556199 85.3304294,382.734695 84.8309268,383 L34.6817293,383 C12.9378968,383 1.33333333,371.4175 1.33333333,349.714948 L1.33333333,142.397687 C1.41695826,142.346951 1.4929253,142.264364 1.55745844,142.146727 C0.990299928,141.953078 0.619295263,141.800203 0.444444444,141.688104 L0.444444444,114.91522 C0.863440993,114.80799 1.2558021,114.728949 1.62152778,114.678097 C1.62451238,114.682085 1.6274715,114.6861 1.63040536,114.690139 C1.55357274,114.489505 1.45103883,114.377829 1.33333333,114.322562 L1.33333333,107.337432 C1.41734247,107.286463 1.49362319,107.20335 1.55834719,107.084849 C0.874626464,106.958224 0.503325547,106.805553 0.444444444,106.626834 L0.444444444,79.8539497 C0.860379731,79.7227763 1.24691977,79.6270307 1.60406456,79.5667131 C1.53077512,79.4053064 1.43805926,79.31148 1.33333333,79.2623068 L1.33333333,66.8106893 C1.39285076,66.6836809 1.44101219,66.502272 1.48098221,66.2812008 Z"/>
    <path id="mywu-i" d="M34.6666667,0 C35.8939661,3.1533936e-15 36.8888889,0.993481696 36.8888889,2.21900348 L36.8888889,3.55040556 C36.8888889,8.94270139 41.2665491,13.3140209 46.6666667,13.3140209 L120,13.3140209 C125.400118,13.3140209 129.777778,8.94270139 129.777778,3.55040556 L129.777778,2.21900348 C129.777778,0.993481696 130.772701,0 132,0 L149.333333,0 C158.906269,0 166.666667,7.74915723 166.666667,17.3082271 L166.666667,343.057937 C166.666667,352.617007 158.906269,360.366165 149.333333,360.366165 L17.3333333,360.366165 C7.76039767,360.366165 1.57898386e-15,352.617007 0,343.057937 L0,17.3082271 C-1.57898386e-15,7.74915723 7.76039767,0 17.3333333,0 L34.6666667,0 Z"/>
  </defs>
  <g fill="none" fill-rule="evenodd">
    <g transform="translate(-372.118 -170.794)">
      <g transform="translate(531.296 251.794)">
        <use fill-rule="nonzero" stroke="#979797" xlink:href="#mywu-a"/>
        <g stroke="#979797" transform="translate(343.03 13.589)">
          <ellipse cx="3.191" cy="3.197" rx="3.191" ry="3.197"/>
        </g>
      </g>
      <g transform="translate(453.118 715.416)">
        <mask id="mywu-c" fill="#fff">
          <use xlink:href="#mywu-b"/>
        </mask>
        <use stroke="#979797" xlink:href="#mywu-b"/>
        <path stroke="#979797" d="M848,0 L848,13.5935416 C848,14.9153842 846.932185,15.9869494 845.604846,15.9869494 L1.59698042,15.9869494 C0.71499249,15.9869494 0,15.2689656 0,14.3956124 L0,0 L848,0 Z" mask="url(#mywu-c)"/>
        <path stroke="#979797" d="M364.568203,1.137e-13 L482.634055,1.23639484e-13 C482.634055,2.39804241 481.602599,9.59216966 473.85889,9.59216966 L373.343368,9.59216966 C366.959352,9.59216966 364.568203,3.19738989 364.568203,1.137e-13 Z" mask="url(#mywu-c)"/>
      </g>
      <polygon stroke="#979797" points="0 0 645.373 0 645.373 404.47 0 404.47" transform="translate(554.43 281.37)"/>
    </g>
    <g transform="rotate(-90 595.5 89.5)">
      <g transform="translate(0 .367)">
        <mask id="mywu-e" fill="#fff">
          <use xlink:href="#mywu-d"/>
        </mask>
        <use stroke="#979797" xlink:href="#mywu-d"/>
        <g stroke="#979797" stroke-linecap="round" stroke-linejoin="round" mask="url(#mywu-e)">
          <ellipse cx="1.463" cy="1.466" rx="1.463" ry="1.466" transform="translate(198.99 19.793)"/>
        </g>
        <g stroke="#979797" mask="url(#mywu-e)">
          <ellipse cx="3.109" cy="3.116" rx="3.109" ry="3.116" transform="translate(205.574 17.96)"/>
        </g>
        <g fill-rule="nonzero" stroke="#979797" mask="url(#mywu-e)">
          <path d="M20.4842105,10.2631579 C20.4842105,4.59497202 15.8986641,0 10.2421053,0 C4.58554644,0 0,4.59497202 0,10.2631579 C0,15.9313438 4.58554644,20.5263158 10.2421053,20.5263158 C15.8986641,20.5263158 20.4842105,15.9313438 20.4842105,10.2631579 Z" transform="translate(198.144 554.12)"/>
        </g>
      </g>
      <rect width="376.495" height="502.628" x="20.253" y="41.186" stroke="#979797" rx="2"/>
    </g>
    <g transform="translate(226 340)">
      <mask id="mywu-h" fill="#fff">
        <use xlink:href="#mywu-f"/>
      </mask>
      <use fill="url(#mywu-g)" fill-opacity="0" xlink:href="#mywu-f"/>
      <path stroke="#979797" d="M157.762715,0.5 L34.6817293,0.5 C13.21334,0.5 1.83333333,11.8580716 1.83333333,33.2875139 L1.83333333,349.714948 C1.83333333,371.141136 13.2138189,382.5 34.6817293,382.5 L157.762715,382.5 C179.230017,382.5 190.611111,371.139282 190.611111,349.712486 L190.611111,33.2875139 C190.611111,11.8580716 179.231104,0.5 157.762715,0.5 Z" mask="url(#mywu-h)"/>
      <g stroke="#979797" mask="url(#mywu-h)">
        <path d="M0.5,1.55330243 C0.5,2.1350253 0.971579562,2.60660487 1.55330243,2.60660487 L21.5578087,2.60660487 C22.1395315,2.60660487 22.6111111,2.1350253 22.6111111,1.55330243 C22.6111111,0.971579562 22.1395315,0.5 21.5578087,0.5 L1.55330243,0.5 C0.971579562,0.5 0.5,0.971579562 0.5,1.55330243 Z" transform="translate(84.444 13.758)"/>
      </g>
      <g stroke="#979797" mask="url(#mywu-h)">
        <ellipse cx="2.667" cy="2.885" rx="2.667" ry="2.663" transform="translate(113.778 12.426)"/>
      </g>
      <g transform="translate(12.889 11.539)">
        <use stroke="#979797" xlink:href="#mywu-i"/>
      </g>
    </g>
  </g>
</svg>
