<svg xmlns="http://www.w3.org/2000/svg" xmlns:xlink="http://www.w3.org/1999/xlink" width="1252" height="770" viewBox="0 0 1252 770">
  <defs>
    <path id="shop-small-a" d="M6.378429,9.24986593 C11.4883033,3.57029855 18.8881468,0 35.0962238,0 L658.939524,0 C673.132331,0 678.830407,2.93741912 683.897254,8.11837276 C688.831862,13.1641084 691.642521,20.3520969 691.642521,35.9669925 L691.642521,443.64149 C691.642521,457.910336 689.579964,463.703082 686.097324,468.369901 C681.006047,475.192332 672.879833,479.608483 663.725977,479.608483 L27.1188015,479.608483 C18.4768788,479.608483 10.7521011,475.672993 5.63139953,469.493583 C1.61635985,464.648431 0,458.423758 0,443.64149 L0,35.9669925 C0,20.7729162 1.91785158,14.2077472 6.378429,9.24986593 Z"/>
    <path id="shop-small-b" d="M0,14.3882545 L0,-1.137e-13 L848,-1.137e-13 L848,14.3882545 C848,14.4823183 843.870762,26.3784666 790.562559,26.3784666 L46.2690499,26.3784666 C14.7434772,26.3784666 0,16.9814501 0,14.3882545 Z"/>
    <path id="shop-small-d" d="M18.2883364,0 L398.711664,0 C408.812033,0 417,8.20458341 417,18.3306645 L417,565.752982 C417,575.876729 408.811803,584.083647 398.711664,584.083647 L18.2883364,584.083647 C8.18796709,584.083647 0,575.879063 0,565.752982 L0,18.3306645 C0,8.20691805 8.18819703,0 18.2883364,0 Z"/>
  </defs>
  <g fill="none" fill-rule="evenodd">
    <g transform="translate(-131.118 -170.794)">
      <g transform="translate(531.296 251.794)">
        <use fill-rule="nonzero" stroke="#979797" xlink:href="#shop-small-a"/>
        <g stroke="#979797" transform="translate(343.03 13.589)">
          <ellipse cx="3.191" cy="3.197" rx="3.191" ry="3.197"/>
        </g>
      </g>
      <g transform="translate(453.118 715.416)">
        <mask id="shop-small-c" fill="#fff">
          <use xlink:href="#shop-small-b"/>
        </mask>
        <use stroke="#979797" xlink:href="#shop-small-b"/>
        <path stroke="#979797" d="M848,0 L848,13.5935416 C848,14.9153842 846.932185,15.9869494 845.604846,15.9869494 L1.59698042,15.9869494 C0.71499249,15.9869494 0,15.2689656 0,14.3956124 L0,0 L848,0 Z" mask="url(#shop-small-c)"/>
        <path stroke="#979797" d="M364.568203,1.137e-13 L482.634055,1.23639484e-13 C482.634055,2.39804241 481.602599,9.59216966 473.85889,9.59216966 L373.343368,9.59216966 C366.959352,9.59216966 364.568203,3.19738989 364.568203,1.137e-13 Z" mask="url(#shop-small-c)"/>
      </g>
      <polygon stroke="#979797" points="0 0 645.373 0 645.373 404.47 0 404.47" transform="translate(554.43 281.37)"/>
    </g>
    <g transform="rotate(-90 423 262)">
      <g transform="translate(0 .367)">
        <mask id="shop-small-e" fill="#fff">
          <use xlink:href="#shop-small-d"/>
        </mask>
        <use stroke="#979797" xlink:href="#shop-small-d"/>
        <g stroke="#979797" stroke-linecap="round" stroke-linejoin="round" mask="url(#shop-small-e)">
          <ellipse cx="1.463" cy="1.466" rx="1.463" ry="1.466" transform="translate(198.99 19.793)"/>
        </g>
        <g stroke="#979797" mask="url(#shop-small-e)">
          <ellipse cx="3.109" cy="3.116" rx="3.109" ry="3.116" transform="translate(205.574 17.96)"/>
        </g>
        <g fill-rule="nonzero" stroke="#979797" mask="url(#shop-small-e)">
          <path d="M20.4842105,10.2631579 C20.4842105,4.59497202 15.8986641,0 10.2421053,0 C4.58554644,0 0,4.59497202 0,10.2631579 C0,15.9313438 4.58554644,20.5263158 10.2421053,20.5263158 C15.8986641,20.5263158 20.4842105,15.9313438 20.4842105,10.2631579 Z" transform="translate(198.144 554.12)"/>
        </g>
      </g>
      <rect width="376.495" height="502.628" x="20.253" y="41.186" stroke="#979797" rx="2"/>
    </g>
  </g>
</svg>
