<svg class="{{ .class }}" xmlns="http://www.w3.org/2000/svg" width="170" height="97.5" viewBox="0 0 170 97.5">
  <path d="M88.52,40.61a2.18,2.18,0,0,0-1.12-2.06,5.3,5.3,0,0,0-2.69-.44H79.6v9.31h2.22V44h2.39c.79,0,1.29.07,1.61.4a2.78,2.78,0,0,1,.35,1.82v1.17h2.24V45.59a2.71,2.71,0,0,0-.36-1.71A2.6,2.6,0,0,0,87,43.1,2.63,2.63,0,0,0,88.52,40.61Zm-2.9,1.31a2,2,0,0,1-1.1.19h-2.7V40.05h2.74a2.28,2.28,0,0,1,1,.16.87.87,0,0,1,.47.83A1,1,0,0,1,85.62,41.92Z"/>
  <path d="M62.61,44.42l-2.9-6.31H56.08v8.81L52.3,38.11H49l-4,9.31h2.41l.86-2.08h4.63l.85,2.08H58.3v-7.3l3.23,7.3h1.95l3.22-7.3v7.3H69V38.11h-3.7Zm-13.52-1,1.51-3.71,1.52,3.71Z"/>
  <path d="M78.06,40.05V38.11H70.64v9.31h7.42V45.49h-5.2V43.63h5.07V41.72H72.86V40.05Z"/>
  <path d="M89.81,38.11v9.31h2.27V38.11Z"/>
  <path d="M97.78,40.1h2.11v-2H97.74a4.54,4.54,0,0,0-3.38,1.08,5,5,0,0,0-1.19,3.64,4.7,4.7,0,0,0,1.18,3.56,4.67,4.67,0,0,0,3.22,1h2.6l.84-2.08h4.62l.86,2.08H111v-7l4.21,7h3.15V38.11H116.1v6.48l-3.91-6.48h-3.38v8.81l-3.76-8.81h-3.33l-3.13,7.32h-1A2.16,2.16,0,0,1,96,45a3.26,3.26,0,0,1-.61-2.19,3.1,3.1,0,0,1,.64-2.11A2.14,2.14,0,0,1,97.78,40.1Zm5.55-.41,1.54,3.71H101.8Z"/>
  <path d="M98,56.65a2.17,2.17,0,0,0-1.14-2.07,5.49,5.49,0,0,0-2.67-.44H89.1v9.31h2.23v-3.4H93.7c.82,0,1.31.08,1.63.42s.36,1.26.36,1.82v1.16h2.23V61.61a2.75,2.75,0,0,0-.36-1.7,2.44,2.44,0,0,0-1.09-.78A2.63,2.63,0,0,0,98,56.65ZM95.13,58a2.22,2.22,0,0,1-1.1.19h-2.7V56.07h2.74a2.2,2.2,0,0,1,1.06.16.9.9,0,0,1,.46.84A1,1,0,0,1,95.13,58Z"/>
  <path d="M112.33,61.46H108v2h4.32c2.25,0,3.49-.93,3.49-2.94a2.61,2.61,0,0,0-.66-2,3.58,3.58,0,0,0-2.54-.75l-1.19,0a2.39,2.39,0,0,1-.87-.11.7.7,0,0,1-.48-.69.71.71,0,0,1,.33-.67,1.52,1.52,0,0,1,.89-.17h4.08v-2h-4.46c-2.33,0-3.17,1.42-3.17,2.77,0,3,2.6,2.81,4.68,2.89a1.19,1.19,0,0,1,.79.2.82.82,0,0,1,.27.62.83.83,0,0,1-.27.61A1.3,1.3,0,0,1,112.33,61.46Z"/>
  <path d="M84.31,54.14h-7.1l-2.82,3-2.73-3H62.72v9.31h8.8l2.84-3.08,2.74,3.08h4.32V60.33h2.77c1.94,0,3.87-.53,3.87-3.12S86.08,54.14,84.31,54.14ZM70.4,61.51H64.93V59.66h4.88v-1.9H64.93v-1.7H70.5l2.43,2.72Zm8.8,1.1-3.41-3.8,3.41-3.67Zm5.09-4.17H81.42V56.07h2.89c.8,0,1.36.32,1.36,1.14S85.14,58.44,84.29,58.44Z"/>
  <path d="M106.69,56.06V54.14H99.27v9.31h7.42V61.52h-5.2V59.66h5.07v-1.9h-5.07v-1.7Z"/>
  <path d="M121,61.46h-4.27v2H121a3.45,3.45,0,0,0,3-1.19,2.94,2.94,0,0,0,.47-1.75,2.7,2.7,0,0,0-.47-1.74,1.12,1.12,0,0,0-.21-.23,3.49,3.49,0,0,0-2.52-.75l-1.2,0a2.36,2.36,0,0,1-.86-.11.7.7,0,0,1-.48-.69.73.73,0,0,1,.32-.67,1.58,1.58,0,0,1,.9-.17h4V9H45V42.43l2.69-6.17h5.79l.75,1.53V36.26H61l1.49,3.35L64,36.26H85.52A3.64,3.64,0,0,1,88,37v-.76h5.9V37a7.67,7.67,0,0,1,3.71-.76h8.55l.79,1.53V36.26h6.34l.86,1.53V36.26h6.17v13h-6.23l-1.18-2v2h-7.78l-.85-2.07H102.4l-.87,2.07h-4a7.53,7.53,0,0,1-3.56-.79v.79h-9.6v-3c0-.41-.07-.44-.32-.45h-.36v3.4H65.1V47.64l-.67,1.62H60.55l-.66-1.59v1.58H52.42l-.85-2.07H49.65l-.85,2.07H45V88.5h79V64.68a7.56,7.56,0,0,1-3.26.6H115v-.83a5.15,5.15,0,0,1-3,.83H93.85v-3c0-.37,0-.38-.41-.38h-.28v3.38h-6v-3.5a7.47,7.47,0,0,1-3.09.45h-.71v3.06H76.14l-1.79-2-1.89,2H60.72v-13h12l1.72,2,1.83-2h8c.92,0,2.45.1,3.13.77v-.77h7.16a5.77,5.77,0,0,1,3,.77v-.77h10.86v.77a4.19,4.19,0,0,1,2.65-.77h6.08v.77a4.58,4.58,0,0,1,2.78-.77H124v1.86h-4.42c-2.34,0-3.19,1.42-3.19,2.77,0,3,2.6,2.81,4.69,2.89a1.14,1.14,0,0,1,.78.2.79.79,0,0,1,.27.62.86.86,0,0,1-.26.61A1.3,1.3,0,0,1,121,61.46Z"/>
</svg>
