<svg class="{{ .class }}" xmlns="http://www.w3.org/2000/svg" width="170" height="97.5" viewBox="0 0 170 97.5">
  <path d="M68.79,39.89H71.4c4,0,7.83,1.07,7.83,6A4.67,4.67,0,0,1,76.93,50V50a5.57,5.57,0,0,1,4.28,5.51c0,4.35-3.65,6.08-7.43,6.08h-5Zm2.67,9.63h.68c2.52,0,4.6-.52,4.6-3.63s-2-3.58-4.55-3.58h-.73Zm0,9.69h2c2.47,0,5-.75,5-3.84s-3.06-3.69-5.45-3.69H71.46Z"/>
  <path d="M88,39.89V52.72c0,3.55,1.06,6.83,5.17,6.83s5.16-3.28,5.16-6.83V39.89H101V53.64c0,4.79-2.92,8.45-7.83,8.45s-7.83-3.66-7.83-8.45V39.89Z"/>
  <path d="M110,61.63h-2.67V39.89H110Z"/>
  <path d="M131.8,44a8.52,8.52,0,0,0-5.65-2.13,8.86,8.86,0,0,0-.05,17.7,8.5,8.5,0,0,0,5.7-2.25v3.2a11.4,11.4,0,0,1-5.62,1.53A11.16,11.16,0,0,1,115,50.87a11.32,11.32,0,0,1,11.37-11.44,10.2,10.2,0,0,1,5.39,1.47Z"/>
  <path d="M148.35,39.89h3.48l-9.61,9.77,9.78,12h-3.61l-8-10.12-1.07,1v9.08h-2.68V39.89h2.68v9.43Z"/>
  <path d="M39,27c-11.58,0-21,9.63-21,21.5S27.38,70,39,70s21-9.63,21-21.5S50.53,27,39,27Zm0,41A19.48,19.48,0,0,1,39,29,19.48,19.48,0,0,1,39,68Z" fill-rule="evenodd"/>
  <path d="M28,48.19V52.6h0c0,2.72,1.54,6.36,3,8.62a21.9,21.9,0,0,0,2.06-4.17h0L28,48.19Z" fill-rule="evenodd"/>
  <path d="M44.56,42.41v4.42h0c0,2.72,1.54,6.36,3,8.61a21.5,21.5,0,0,0,2.06-4.16h0l-5.06-8.87Z" fill-rule="evenodd"/>
  <path d="M36.28,45.3v4.41h0c0,2.72,1.55,6.36,3,8.62a22.4,22.4,0,0,0,2.06-4.16h0L36.28,45.3Z" fill-rule="evenodd"/>
  <path d="M33.9,54,28,43.69v-.25h6V52.6h0A9.81,9.81,0,0,1,33.9,54Z" fill-rule="evenodd"/>
  <path d="M50.45,48.23,44.56,37.91v-.25h6v9.17h0a10.06,10.06,0,0,1-.12,1.4Z" fill-rule="evenodd"/>
  <path d="M42.17,51.11,36.28,40.8v-.25h6v9.16h0a8.54,8.54,0,0,1-.12,1.4Z" fill-rule="evenodd"/>
  <path d="M42.66,35.74v2.89H34.39v2.88H26.11V52.06c0,5.35,2.14,8.28,4.9,12.8,2.13-3.49,3.89-6,4.58-9.47A49.3,49.3,0,0,0,39.29,62c2.12-3.49,3.88-6,4.58-9.46a49.59,49.59,0,0,0,3.69,6.57c2.76-4.51,4.9-7.44,4.9-12.8V35.74Zm-8.27,17c0,3-1.69,6.52-3.38,9.2-1.68-2.68-3.37-6.23-3.37-9.2V43.06h6.75Zm8.27-2.89c0,3-1.69,6.53-3.37,9.2-1.69-2.67-3.38-6.23-3.38-9.2V40.17h6.75ZM50.94,47c0,3-1.69,6.53-3.38,9.21C45.87,53.52,44.19,50,44.19,47v-9.7h6.75Z" fill-rule="evenodd"/>
</svg>
