<svg class="{{ .class }}" xmlns="http://www.w3.org/2000/svg" width="170" height="97.5" viewBox="0 0 170 97.5">
  <title>Corsair</title>
  <path d="M128.72,77.16s1.76,3.16,2.81,4.72a10.18,10.18,0,0,0,3,3.12h-1.65c-3-.68-4-1.68-5-3.2s-3.61-6.08-3.61-6.08h1a2.3,2.3,0,0,0,1.69-.56,4.22,4.22,0,0,0,1-2.76,4.36,4.36,0,0,0-.8-2.64,2.44,2.44,0,0,0-2-1h-1.73a2,2,0,0,0-.49.52V82.12a6,6,0,0,0,1.68,1.32h-6.37a6,6,0,0,0,1.69-1.32V69.28A6,6,0,0,0,118.23,68h8a6.23,6.23,0,0,1,3.17.8,3.85,3.85,0,0,1,1.65,3.52,4.08,4.08,0,0,1-1.45,3.36,5.22,5.22,0,0,1-2.69.84A2.68,2.68,0,0,0,128.72,77.16Zm-11.38,6.28H111a6,6,0,0,0,1.68-1.32V69.28A6,6,0,0,0,111,68h6.37a6,6,0,0,0-1.69,1.32V82.12A6,6,0,0,0,117.34,83.44Zm-12-1.52L104,78.48h-5.4L97.19,82c0,.56,1.61,1.4,1.61,1.4h-5s1.4-.6,1.68-1.32L101.21,68h1.92s5.51,13.68,5.75,14.24,1.6,1.24,1.6,1.24h-6.9S105.38,82.52,105.38,81.92Zm-4.07-10.19-2.23,5.59h4.46Zm-9.06,3.51a4.19,4.19,0,0,1,1.93,3.6,4.63,4.63,0,0,1-1.65,3.68,6.5,6.5,0,0,1-4.18,1.32,10.79,10.79,0,0,1-4.61-1.24V78.76h.48a6.45,6.45,0,0,0,1.69,2.92,3.73,3.73,0,0,0,2.65,1.12,3.26,3.26,0,0,0,2-.68,2.46,2.46,0,0,0,.73-1.92c0-1.24-.69-1.84-1.73-2.44a34.5,34.5,0,0,1-4.1-2.16,4.51,4.51,0,0,1-.16-6.68,5.47,5.47,0,0,1,4-1.32,8.75,8.75,0,0,1,4.18,1v3.52h-.53a5.32,5.32,0,0,0-1.28-2.6,2.91,2.91,0,0,0-2.37-1,3.22,3.22,0,0,0-1.81.52,2.34,2.34,0,0,0-1.12,2A2.74,2.74,0,0,0,88,73.32C88.92,73.88,91.21,74.56,92.25,75.24Zm-14,1.92s1.77,3.16,2.82,4.72a10.07,10.07,0,0,0,3,3.12H82.41c-3-.68-4.06-1.68-5-3.2s-3.61-6.08-3.61-6.08h1a2.32,2.32,0,0,0,1.69-.56,4.22,4.22,0,0,0,1-2.76,4.36,4.36,0,0,0-.8-2.64,2.46,2.46,0,0,0-2-1H73a2,2,0,0,0-.5.52V82.12a6,6,0,0,0,1.69,1.32H67.79a6,6,0,0,0,1.69-1.32V69.28A6,6,0,0,0,67.79,68h8a6.27,6.27,0,0,1,3.18.8,3.84,3.84,0,0,1,1.64,3.52,4.08,4.08,0,0,1-1.44,3.36,5.22,5.22,0,0,1-2.69.84A2.68,2.68,0,0,0,78.27,77.16ZM65.54,81.52a8,8,0,0,1-13.73-5.84,8,8,0,0,1,2.45-6,7.4,7.4,0,0,1,5.58-2.12,7.29,7.29,0,0,1,5.46,2,8,8,0,0,1,2.57,6A7.71,7.71,0,0,1,65.54,81.52Zm-2.29-11a4.19,4.19,0,0,0-3.41-2,4.31,4.31,0,0,0-3.54,2.28,9.6,9.6,0,0,0-1.24,4.72,9.34,9.34,0,0,0,1.32,5c.85,1.28,1.93,2.32,3.46,2.32a4.33,4.33,0,0,0,3.45-2.2,9.55,9.55,0,0,0,1.29-5.08A9.39,9.39,0,0,0,63.25,70.52Zm-19,13.32A9.58,9.58,0,0,1,38.51,82a7.59,7.59,0,0,1-3-6.28,8,8,0,0,1,2.81-6.16,9.46,9.46,0,0,1,6-1.92,11.63,11.63,0,0,1,5.94,1.6v4.2h-.56c-.36-2-1.89-4.76-4.9-4.76s-6,2.8-6,7,2.94,7.16,6,7.16,4.42-2.64,4.94-4.8h.56v4.2A11.4,11.4,0,0,1,44.26,83.84ZM87.37,11.5C88.81,14.45,91,19.21,91,23.77c3.49,1.19,10.46,4,12.32,9.37a5.43,5.43,0,0,0,.81-2.95c0-3.56-3.15-8.13-6.87-11.46A57.13,57.13,0,0,0,87.37,11.5Zm-11.6,8.13C78,23.34,79,26.39,79,28.1c0,.48-.1,1.28-.1,1.28a41,41,0,0,1,6.4,2.38,33.15,33.15,0,0,0-2.24-7.37ZM65,26.63c1.38,1.85,3.15,5.08,3.15,7.46a6,6,0,0,1-.14,1,37.62,37.62,0,0,1,5.82,1.52,29.53,29.53,0,0,0-2-6.32Zm19.34-5.38a32.39,32.39,0,0,1,4.25,15.51A30.57,30.57,0,0,1,84.75,51.5a36.8,36.8,0,0,0,1.43-10.32,23.68,23.68,0,0,0-.33-5.33L73.48,27.72a30.09,30.09,0,0,1,2.86,12.89,33.3,33.3,0,0,1-2.91,13.22,42.79,42.79,0,0,0,1-9.13c0-3.66-.33-4.52-.33-4.52L62.5,34.05a23.34,23.34,0,0,1,2.77,11.36,26.57,26.57,0,0,1-7.12,17.65C83,52.69,93.2,51.55,99,51.55s9.07,1.57,10.12,4.42a15.38,15.38,0,0,0,2.67-7.75c0-3.62-2.1-6.23-6.68-10.56A211.09,211.09,0,0,0,84.32,21.25Z" fill-rule="evenodd"/>
</svg>
