<svg class="{{ .class }}" xmlns="http://www.w3.org/2000/svg" width="170" height="97.5" viewBox="0 0 170 97.5">
  <path d="M85,9.5a39,39,0,1,0,39,39,39,39,0,0,0-39-39M95.66,38.06h10.49v5.79a.27.27,0,0,0,.27.27h8.79a.3.3,0,0,0,.31-.27l1.74-11a.15.15,0,0,1,.28,0A36.19,36.19,0,0,1,116.6,66a.15.15,0,0,1-.2.06.16.16,0,0,1-.08-.14v-10a.27.27,0,0,0-.26-.27h-9.64a.27.27,0,0,0-.27.27v5.34h-4.23a3.55,3.55,0,0,1-3.55-3.54V40.31a.53.53,0,0,0-.21-.42ZM51.21,36.49l3.37,2.45a.53.53,0,0,1,.22.43V67.76a.14.14,0,0,1-.14.15.15.15,0,0,1-.13-.07,36.18,36.18,0,0,1-3.59-31.28.16.16,0,0,1,.2-.1l0,0M85,84.61A36,36,0,0,1,56.84,71.1a.16.16,0,0,1,0-.21.17.17,0,0,1,.1,0H76.28a.81.81,0,0,0,.5-.16l7.38-5.36a.53.53,0,0,0,.21-.42V34.26a.54.54,0,0,0-.21-.42l-7.4-5.35a.82.82,0,0,0-.5-.17H55.39a.13.13,0,0,1-.15-.14.1.1,0,0,1,0-.09,36.11,36.11,0,0,1,59.52,0,.17.17,0,0,1,0,.21.13.13,0,0,1-.08,0h-5.2a.47.47,0,0,0-.4.26L107.91,31l-3.52-2.55a.82.82,0,0,0-.5-.17h-8.3a.84.84,0,0,0-.5.17l-7.34,5.35a.58.58,0,0,0-.22.42V64.92a.57.57,0,0,0,.22.42l7.37,5.36a.83.83,0,0,0,.5.16h17.47a.15.15,0,0,1,.15.15.11.11,0,0,1,0,.09A36,36,0,0,1,85,84.61M63,38.06h7A3.54,3.54,0,0,1,73.5,41.6h0V57.72A3.54,3.54,0,0,1,70,61.26H65.68V40.31a.58.58,0,0,0-.22-.42Z"/>
</svg>
