<svg class="{{ .class }}" xmlns="http://www.w3.org/2000/svg" width="170" height="97.5" viewBox="0 0 170 97.5">
  <path d="M41.52,46.54c-4.71.35-10.75,1.22-10.7,2.86s4.5,5,10.34,7.18C41.43,53.06,41.5,49.33,41.52,46.54ZM24.25,28.83c-1.55,0-2.72-.63-2.75-1.58a5.76,5.76,0,0,1,2.42-3.19,27.19,27.19,0,0,1,8.86-1.55,50.53,50.53,0,0,1,7.86.58c15.89,2.34,32.58,14.39,32.9,25.08.21,7.27-6.1,14.1-18.44,14.46a31.71,31.71,0,0,1-9-1c-.06,1.79.08,2.73-2.47,2.81-1.55,0-2.16-2.47-2.39-4.51-7.45-3.28-11.93-8.62-12-10.73-.1-3.13,5.64-5.75,12.34-6.78.1-2.6.54-9.21,1.92-9.25.55,0,1.7,1.26,2.13,3.21A33.61,33.61,0,0,1,46.06,42h.51c9.41-.28,15,2.64,15.15,6.11a4,4,0,0,1-3.56,4.1c-1.26,0-2.73-.67-2.74-1.06,0-.74,2.68-.91,2.64-2.11-.05-1.8-7.54-2.59-12.14-2.62,0,1.55,0,3.43,0,4.69s.11,4.34.15,7a27.25,27.25,0,0,0,6.35.62c5-.15,16.33-1.95,16.07-10.43C68.15,36.34,44.59,25.45,32,25.82,27,26,24,26.5,24,27c0,.32,2.42.44,2.44,1.08S25.1,28.8,24.25,28.83Z"/>
  <path d="M77.13,41.78c.82,0,2,1.91,2,3.12s.32,7.54.41,9.37a29.31,29.31,0,0,1-.09,4.37c-.12.81-.42,1.21-1.81,1.25a2,2,0,0,1-2.17-2c-.12-1.23-.22-4.69-.16-6.43s.14-5.06.37-7.14S76.49,41.79,77.13,41.78Z" fill-rule="evenodd"/>
  <path d="M85.21,27.56c-.23-.58-1-1.74-3.78-1.66-6,.18-10.68,4.63-10.58,8.13a4.4,4.4,0,0,0,1.4,3A3.25,3.25,0,0,0,72,38.16c0,.61.94,2.22,1.65,2.2s1-.58,1.58-1.48a7.49,7.49,0,0,0,2.75.55c5.68-.17,10.83-5.46,10.73-8.85C88.68,29,87.66,27.52,85.21,27.56ZM76.64,36c.7-1,4.32-5.81,8.06-5.92,1.1,0,1.38.64,1.41,1.38,0,1.17-2.08,4.56-6.84,4.7A14.27,14.27,0,0,1,76.64,36Zm-3-1.61a1.37,1.37,0,0,1-.18-.72,5.06,5.06,0,0,1,4.71-4A14.59,14.59,0,0,0,75.62,32,24.68,24.68,0,0,0,73.69,34.36Z" fill-rule="evenodd"/>
  <path d="M91.87,41.45c3.32-.1,7.48.33,7.52,1.39a2.06,2.06,0,0,1-2.08,2.09c-2.1.21-12.65.65-12.61,2,0,.68,3.19.84,6.1,1s7.79.29,7.93,5.1c.11,3.8-1.33,4.6-2,4.91A18.06,18.06,0,0,1,91,59.39c-6.41.19-9-3.47-9.11-5.33,0-1.66,1.67-3.12,4.54-3.21s7.33.95,7.36,2.13c0,1-1.93,1.44-2.8,1.46-3.92.12-3.73-1.47-6-1.4-1.29,0-3.1,2.76,3.36,2.57,5.75-.17,7.49-2,7.46-3.07,0-1.34-4.17-2-6.55-2.11s-6-.11-7.2-.88S81,47,81.47,45.6C82.35,42.6,88.54,41.55,91.87,41.45Z" fill-rule="evenodd"/>
  <path d="M103.22,42.7c2.25-.07,7,10.06,7.75,10s.2-2.37-.3-5c-1.13-5.85-2.9-8.87-1.24-8.92,1.23,0,5.26,3.84,5.48,11.35.1,3.48-.39,8-3.56,8.14-3,.08-6.44-9.37-7.22-9.35-.42,0-.46,5.86-.57,7.62s-.73,2.71-1.72,2.74c-1.49,0-2.15-1.39-2.24-4.2S100.45,42.78,103.22,42.7Z" fill-rule="evenodd"/>
  <path d="M126.06,48.18c1.06,0,2-.21,1.91,1.16s-.15,1.93-1.26,2l-5.69.17c-.18.63-.67,2.25-.89,2.93-.27.86.59.67,1.71.36a32.32,32.32,0,0,1,5.38-.92c1.24,0,2.17,1.93,1.46,2.61s-4.56,3.9-8.58,4A4.23,4.23,0,0,1,116,56.35,14.49,14.49,0,0,1,117,51.54c-.13-.08-.23-.28-.31-.7-.18-1-.62-2,1-2.21l.48,0,1.33-2.73a5,5,0,0,1-1.37-.37,3.42,3.42,0,0,1-1.76-2.2c0-1.18,8.64-1.88,10.65-1.94s2.77.35,3.45,1.33a4.81,4.81,0,0,1,1,1.94c0,.27-.24.93-2.85,1-1.33,0-3.48.26-5.55.34l-.9,2.38C124.18,48.25,126.06,48.18,126.06,48.18Z"/>
  <path d="M131.94,56.33c-2.33,4.57-3.9,9.41-3.79,13.06.12,4.1,2.66,5.63,3.43,5.61s.81-1.24.95-2.14a60.48,60.48,0,0,1,3.67-13.49,7,7,0,0,0,1.78.21c4.72-.14,10.19-5.76,10-11.73-.09-3.15-1.3-5.39-3.34-5.33-3,.09-7.24,4.56-10.67,10.17-.31-2.28,1.49-5.78,3-8.24,1.08-1.72.89-3.76.44-3.75-.62,0-6.72,5.15-6.51,12.18A6.71,6.71,0,0,0,131.94,56.33Zm6.3-1.42c2.84-5.53,5.77-8.68,6.8-8.71C146.83,46.15,145.32,54.19,138.24,54.91Z" fill-rule="evenodd"/>
</svg>
