<svg class="{{ .class }}" xmlns="http://www.w3.org/2000/svg" width="170" height="97.5" viewBox="0 0 170 97.5">
  <title>Golden Globes</title>
  <path d="M130.84,37.94h2.81a1.9,1.9,0,0,1-.62,2.12c-.53.4-1.11.72-1.66,1.09a7.89,7.89,0,0,0-1,.73.75.75,0,0,0-.12,1.16,4.87,4.87,0,0,0,.6.68,1.54,1.54,0,0,1,.61,1.37.69.69,0,0,0,.06.25c.6-.11,1,.27,1.32.63a.73.73,0,0,1,.12.48q0,13.1,0,26.2v.84H122.34V46.58a1.31,1.31,0,0,1,1.23-1.25h.23c0-.08.07-.16,0-.23a1.61,1.61,0,0,1,.64-1.4,6.31,6.31,0,0,0,.55-.61c.36-.49.35-.84-.11-1.22a15.49,15.49,0,0,0-1.41-1c-.39-.26-.8-.49-1.17-.78a2,2,0,0,1-.72-2.13h2.68c.28-.65.5-1.24.77-1.8a3.57,3.57,0,0,0,.31-1.93,2.55,2.55,0,0,1,0-.28,9.26,9.26,0,0,0,4.53-.06,4.09,4.09,0,0,0,0,.86c.13.7.31,1.39.48,2.08,0,.06,0,.15.09.17C130.88,37.2,130.88,37.54,130.84,37.94Z"/>
  <path d="M49,50.34c-.27,0-.44,0-.62,0h-6.9c-.38,0-.49-.11-.48-.49,0-.79,0-1.59,0-2.39,0-.29.08-.41.39-.41,3.89,0,7.77,0,11.66,0,.39,0,.42.18.41.48A9.4,9.4,0,0,1,49,55.41,10.42,10.42,0,0,1,34.68,52.6,9.73,9.73,0,0,1,36,40.28,10.32,10.32,0,0,1,51.51,41.5a17.38,17.38,0,0,1,1,1.7c-.28,0-.42,0-.57,0-1.06,0-2.12,0-3.18,0A.94.94,0,0,1,48,42.9a6.39,6.39,0,0,0-7.31-1.68,6.51,6.51,0,0,0-4.06,6.35,6.77,6.77,0,0,0,5.75,6.09,6.3,6.3,0,0,0,6.27-2.74A6.37,6.37,0,0,0,49,50.34Z"/>
  <path d="M73.85,57.13a9.9,9.9,0,1,1,10-9.85A9.9,9.9,0,0,1,73.85,57.13Zm-6.46-9.89a6.45,6.45,0,0,0,12.9.21,6.45,6.45,0,1,0-12.9-.21Z"/>
  <path d="M94.67,46.3l.3.16a4.67,4.67,0,0,1,2.83,5,5.49,5.49,0,0,1-4.39,4.86,21.39,21.39,0,0,1-3.49.35c-1.33,0-2.67,0-4,0-.4,0-.49-.13-.48-.5q0-9,0-18c0-.36.1-.5.49-.49,1.79,0,3.58,0,5.37.06a5.59,5.59,0,0,1,4,1.68A4.56,4.56,0,0,1,96,45.06,6.55,6.55,0,0,1,95,46,3.93,3.93,0,0,1,94.67,46.3ZM89,50.81h0c0,.7,0,1.4,0,2.1,0,.29.11.4.4.39.7,0,1.4,0,2.1,0a3.89,3.89,0,0,0,1.87-.59,2.21,2.21,0,0,0,0-3.69,3.43,3.43,0,0,0-1.87-.57c-.71,0-1.43,0-2.14,0-.31,0-.42.11-.41.41C89,49.47,89,50.14,89,50.81ZM89,43c0,.54,0,1.07,0,1.61,0,.23.08.37.33.36.73,0,1.47,0,2.19-.12a1.94,1.94,0,0,0,1.69-2,1.89,1.89,0,0,0-1.78-1.8c-.7-.08-1.42,0-2.14,0-.25,0-.28.16-.28.36Z"/>
  <path d="M99.29,47.19c0-3,0-6,0-9,0-.4.11-.52.51-.51H109c.43,0,.54.13.52.54,0,.78,0,1.56,0,2.34,0,.38-.1.5-.49.5-1.9,0-3.8,0-5.7,0-.55,0-.55,0-.55.55,0,1.13,0,2.25,0,3.38,0,.38.11.5.49.49,1.81,0,3.61,0,5.42,0,.53,0,.53,0,.53.55,0,.8,0,1.59,0,2.39,0,.34-.12.45-.46.45-1.82,0-3.63,0-5.45,0-.43,0-.55.13-.54.54,0,1.13,0,2.26,0,3.38,0,.39.11.53.52.52,1.91,0,3.82,0,5.74,0,.38,0,.5.11.49.49,0,.83,0,1.65,0,2.47,0,.31-.08.44-.42.44-3.12,0-6.25,0-9.38,0-.38,0-.45-.14-.45-.48Q99.3,51.7,99.29,47.19Z"/>
  <path d="M54.29,67.66c-.14.56-.3,1.13-.44,1.69-.65,2.57-1.31,5.14-1.94,7.71-.09.39-.25.53-.64.5a6.84,6.84,0,0,0-1.28,0c-.36,0-.5-.13-.6-.46-.59-2.08-1.2-4.16-1.81-6.25-.79-2.7-1.59-5.4-2.38-8.1,0-.13-.06-.26-.11-.45l.47,0c.63,0,1.27,0,1.9,0a.5.5,0,0,1,.6.45c.78,3.16,1.57,6.31,2.37,9.47a1.17,1.17,0,0,0,.26.54c0-.13.1-.26.13-.4.79-3.17,1.58-6.34,2.34-9.52.1-.41.27-.58.7-.54a5.47,5.47,0,0,0,1.07,0c.33,0,.46.11.53.42.58,2.43,1.18,4.86,1.77,7.28.19.81.39,1.61.59,2.41a.7.7,0,0,0,.21.38c0-.16.1-.31.15-.48.8-3.18,1.61-6.36,2.41-9.54.09-.37.24-.48.62-.47.75,0,1.5,0,2.32,0a3.53,3.53,0,0,1-.08.44q-2.1,7.21-4.21,14.43c-.09.29-.21.43-.54.41s-.94,0-1.41,0-.45-.11-.52-.42c-.59-2.41-1.19-4.82-1.78-7.23-.19-.75-.37-1.49-.55-2.23Z"/>
  <path d="M48.51,22.72l-.46,0c-.44,0-.89,0-1.32,0a2.9,2.9,0,0,1-2.41-.82,5.18,5.18,0,0,0-7.52.92,5.12,5.12,0,0,0,1.45,7.47A5.19,5.19,0,0,0,45.4,29c.11-.15.19-.32.33-.55l-.55,0c-1.78,0-3.55,0-5.33,0-.4,0-.57-.08-.54-.52s0-1.12,0-1.69c0-.29.08-.42.4-.42q4.6,0,9.21,0c.4,0,.41.21.4.5a7.64,7.64,0,0,1-4.8,6.93,8.34,8.34,0,0,1-10.65-3.51,8,8,0,0,1,4.65-11.3,8.24,8.24,0,0,1,9.76,3.78C48.36,22.34,48.41,22.51,48.51,22.72Z"/>
  <path d="M104.11,22.66a3.57,3.57,0,0,0,0,.46V33c0,.54,0,.54-.55.54h-1.86c-.29,0-.42-.06-.42-.38q0-7.26,0-14.51c0-.28.09-.39.37-.38.83,0,1.66,0,2.48,0a.74.74,0,0,1,.5.32q3,5.1,5.89,10.22a.89.89,0,0,0,.35.38,3.11,3.11,0,0,0,0-.32V18.84c0-.55,0-.55.57-.55h1.65c.58,0,.58,0,.58.56V32.4c0,1.15,0,1.15-1.18,1.15-.51,0-1,0-1.53,0a.65.65,0,0,1-.65-.38l-4.87-8.42-1-1.79-.21-.33Z"/>
  <path d="M58.06,33.93a8,8,0,1,1,8-8.14A8,8,0,0,1,58.06,33.93Zm0-2.73A5.24,5.24,0,1,0,52.83,26,5.23,5.23,0,0,0,58,31.2Z"/>
  <path d="M88.2,69.91c0-2.38,0-4.75,0-7.13,0-.42.13-.53.54-.52,1.62.06,3.25,0,4.87.15A7,7,0,0,1,99,65.28,7.88,7.88,0,0,1,97.58,76a6.94,6.94,0,0,1-3.87,1.42c-1.73.1-3.46.08-5.2.12-.34,0-.32-.21-.32-.43,0-2.25,0-4.51,0-6.76Zm2.81,0c0,1.5,0,3,0,4.49,0,.33.11.48.45.45.77-.06,1.54,0,2.3-.18a4.64,4.64,0,0,0,3.9-4.16,4.82,4.82,0,0,0-2.89-5A9.38,9.38,0,0,0,91.48,65c-.36,0-.48.11-.47.47C91,66.93,91,68.41,91,69.89Z"/>
  <path d="M76.65,25.9c0-2.36,0-4.72,0-7.08,0-.41.09-.56.52-.54,1.76.08,3.53,0,5.28.21a7.33,7.33,0,0,1,6.43,8.56A7,7,0,0,1,84.2,33a10.54,10.54,0,0,1-2.91.53c-1.39.09-2.8,0-4.21.05-.35,0-.44-.12-.44-.46Q76.66,29.5,76.65,25.9Zm2.81,0h0c0,1.51,0,3,0,4.53,0,.27.06.42.37.39a25.49,25.49,0,0,0,2.62-.23,4.57,4.57,0,0,0,3.67-4.44,4.63,4.63,0,0,0-3.5-4.87,23.72,23.72,0,0,0-2.7-.29c-.36,0-.47.11-.46.47C79.47,23,79.46,24.43,79.46,25.91Z"/>
  <path d="M83.16,71.94l4.11,5.58-.48,0c-.85,0-1.71,0-2.56,0a.7.7,0,0,1-.67-.36q-1.69-2.49-3.41-5a.94.94,0,0,0-.37-.33c0,.14,0,.28,0,.42,0,1.58,0,3.16,0,4.74,0,.41-.13.52-.52.5-.63,0-1.27,0-1.9,0-.3,0-.41-.08-.41-.39V62.66c0-.24,0-.4.33-.39,1.92,0,3.84,0,5.74.13a4.81,4.81,0,0,1,.58,9.39Zm-3.41-4.69h0c0,.65,0,1.29,0,1.93,0,.13.16.37.25.37a19.09,19.09,0,0,0,2.62-.15,2.08,2.08,0,0,0,1.68-2A2.27,2.27,0,0,0,81.88,65c-.58,0-1.15,0-1.73,0-.31,0-.41.12-.4.41C79.76,66,79.75,66.64,79.75,67.25Z"/>
  <path d="M47.52,77.55H45.39c-1,0-1,0-1.32-.87s-.77-1.79-1.14-2.7a.52.52,0,0,0-.58-.39H37.68a.53.53,0,0,0-.58.39c-.42,1-.88,2-1.27,3a.8.8,0,0,1-.92.59c-.78,0-1.56,0-2.41,0,0-.17.08-.28.12-.38q3-7.24,6.06-14.49a.57.57,0,0,1,.65-.42,8.55,8.55,0,0,0,1.24,0,.62.62,0,0,1,.7.46c1.16,2.78,2.34,5.55,3.51,8.32q1.28,3,2.57,6.07C47.4,77.22,47.44,77.34,47.52,77.55Zm-9.19-6.73a2.57,2.57,0,0,0,.39.05H41.2c.36,0,.42-.12.3-.44-.46-1.25-.89-2.51-1.34-3.76,0-.11-.11-.2-.22-.41Z"/>
  <path d="M76.12,77.55c-1,0-2,0-2.9,0-.11,0-.27-.17-.32-.3-.46-1-.91-2.09-1.33-3.15a.65.65,0,0,0-.72-.5c-1.47,0-2.95,0-4.42,0a.73.73,0,0,0-.81.56c-.42,1-.88,2-1.31,3.07a.48.48,0,0,1-.52.34H61.1c0-.17.08-.29.12-.4q3-7.23,6.07-14.48a.55.55,0,0,1,.61-.41,9.69,9.69,0,0,0,1.32,0,.57.57,0,0,1,.62.41c1,2.49,2.09,5,3.14,7.44,1,2.28,1.93,4.55,2.89,6.83C76,77.11,76,77.29,76.12,77.55ZM68.63,66.38h-.14q-.78,2.2-1.56,4.44a2,2,0,0,0,.23.06h2.72c.29,0,.32-.14.23-.37l-.93-2.64C69,67.37,68.82,66.87,68.63,66.38Z"/>
  <path d="M54.65,47.17q0-4.47,0-8.94c0-.41.1-.55.53-.54.8,0,1.59,0,2.39,0,.6,0,.6,0,.6.58V52.41c0,.15,0,.3,0,.45,0,.36.12.45.45.44h4.8c.58,0,.58,0,.58.59,0,.78,0,1.56,0,2.35,0,.33-.09.45-.45.45q-4.23,0-8.47,0c-.35,0-.44-.12-.44-.45Q54.66,51.7,54.65,47.17Z"/>
  <path d="M90.83,25.91c0-2.37,0-4.75,0-7.12,0-.4.12-.52.51-.51H98.6c.36,0,.49.1.47.46a16.64,16.64,0,0,0,0,1.73c0,.41-.09.55-.52.54-1.46,0-2.92,0-4.38,0-.51,0-.53,0-.53.54,0,.84,0,1.67,0,2.51,0,.39.11.53.52.52,1.4,0,2.8,0,4.21,0,.39,0,.49.12.48.49,0,.6,0,1.21,0,1.81,0,.33-.09.43-.42.43-1.42,0-2.84,0-4.25,0-.39,0-.54.11-.53.51,0,.85,0,1.71,0,2.56,0,.4.14.51.53.5,1.48,0,3,0,4.46,0,.33,0,.47.07.45.43,0,.64,0,1.29,0,1.93,0,.26-.08.36-.36.36H91.2c-.39,0-.38-.21-.38-.47Q90.84,29.5,90.83,25.91Z"/>
  <path d="M102.34,73.28c.34,0,.68,0,1,0s.42.1.48.4a1.94,1.94,0,0,0,1.91,1.52,2,2,0,0,0,2.1-1.28,2.05,2.05,0,0,0-.77-2.41,12.16,12.16,0,0,0-1.82-.86c-.4-.17-.84-.27-1.24-.45a4.22,4.22,0,0,1-.47-7.57,4.56,4.56,0,0,1,6.82,3.13c.07.52.05.54-.47.54s-1.32,0-2,0a.41.41,0,0,1-.49-.36,1.53,1.53,0,0,0-1-1.11,1.58,1.58,0,0,0-2,.65,1.61,1.61,0,0,0,.52,2.15,9.11,9.11,0,0,0,1.42.65c.62.26,1.28.44,1.88.74a4.6,4.6,0,0,1,1.14,7.46,5.1,5.1,0,0,1-8.3-1.82,9.32,9.32,0,0,1-.22-1c0-.25.07-.34.32-.34Z"/>
  <path d="M118.33,79a5.77,5.77,0,0,1,1.11-4.23.7.7,0,0,1,.65-.33q7.55,0,15.08,0a.62.62,0,0,1,.62.35,6.71,6.71,0,0,1,1.11,2.54c.08.54.07,1.09.1,1.67Z"/>
  <path d="M67.89,25.89c0-2.36,0-4.72,0-7.08,0-.42.12-.56.54-.53.59,0,1.19,0,1.78,0,.39,0,.53.09.52.5,0,1.22,0,2.44,0,3.67v7.82c0,.56,0,.56.57.56,1.26,0,2.51,0,3.76,0,.31,0,.41.09.41.4,0,.64,0,1.29,0,1.93,0,.28-.08.39-.37.39q-3.39,0-6.78,0c-.36,0-.4-.17-.4-.46V25.89Z"/>
  <path d="M120.25,28.77a9.77,9.77,0,0,0,5.42-.26,17.06,17.06,0,0,0,6.78-3.8,14.91,14.91,0,0,0,1.32-1.63c.1-.12.17-.27.26-.4.36.25,0,.43-.05.67.12.11.25.23.39.34a1.29,1.29,0,0,1,.36,1.72,6.15,6.15,0,0,1-2,2.16,19.81,19.81,0,0,1-8.1,3.53,15.66,15.66,0,0,1-2.38.07.89.89,0,0,1-.83-.5c-.15-.25-.34-.47-.47-.73a1.33,1.33,0,0,1-.07-.45,2.58,2.58,0,0,1,.39,0c.11,0,.23,0,.4.05a.74.74,0,0,0-1-.05Zm8.77-.9-.07-.12-.78.42s-.11.12-.09.16c.15.36.31.71.47,1.06l.12-.06c-.14-.33-.28-.66-.44-1Zm-2.25,1,.85-.34,0-.13c-.3.1-.59.21-.89.33a.16.16,0,0,0-.07.16c.12.39.25.77.39,1.16l.13-.05Zm7-5-.11-.09c-.21.26-.42.51-.61.77a.14.14,0,0,0,0,.15c.28.27.57.53.86.79l.11-.11-.87-.72Zm-9.17,5.46,0-.13-.89.13a.22.22,0,0,0-.13.15c0,.39.07.78.1,1.18h.13l-.06-1.15Zm6.8-1.6.11-.09c-.22-.32-.43-.63-.63-.94l.71-.63-.08-.09c-.24.19-.49.37-.72.58a.26.26,0,0,0,0,.24Zm-8.32,1.75v-.14l-1.07.06v1.27h.11V29.57Zm6.93-.88.11-.07q-.27-.48-.54-1l.75-.53-.08-.11-.9.6Zm-3.91.39,0-.13-.88.25a.16.16,0,0,0-.1.15c.06.38.15.75.22,1.13l.14,0c-.07-.36-.14-.72-.21-1.1Zm6.63-4-.15-.15c-.19.23-.39.46-.57.69,0,0-.08.15-.06.18.25.32.52.63.78.95l.11-.09-.74-.88Z"/>
  <path d="M125.94,25.24a.51.51,0,0,0-.72.35,2.17,2.17,0,0,0-.07.24.37.37,0,0,1-.51.28c-.14-.06-.22-.29-.28-.46s0-.22,0-.33c.06-.9.18-1,1.1-1.15a7.59,7.59,0,0,0,1-.2l.53.6a5,5,0,0,1,0-.67.93.93,0,0,1,.21-.46c.19-.19.44-.32.65-.5s.19-.2.17-.25c-.21-.51.32-.57.49-.84a1,1,0,0,1,.47-.35,2.16,2.16,0,0,1,.61-.19,5,5,0,0,1,.54-.08V21.1l-.51-.29a6.82,6.82,0,0,1,3.68,2.58,11.76,11.76,0,0,1-4,3.3c-.57-.42-1-.36-1.49.26-.17.21-.63.24-1,.25s-.31-.26-.3-.53-.18-.48-.82-.4C125.81,25.93,125.87,25.6,125.94,25.24Zm2.14.15c.1.09.18.22.28.25.36.11.61-.12.86-.35a.9.9,0,0,0-.55-.17,1.3,1.3,0,0,1-.93-.17,1.33,1.33,0,0,0-1.48.12Z"/>
  <path d="M127,27.56a1.33,1.33,0,0,1-.39-.21,5.08,5.08,0,0,0-2-.9.3.3,0,0,0-.16,0,.85.85,0,0,1-1.17-.59,4.09,4.09,0,0,0-.6-1.06,1.81,1.81,0,0,1-.15-2,2.64,2.64,0,0,0,.19-.49s0,0,0,0c.52.12.77-.11.88-.61a.8.8,0,0,1,.34-.43,6.9,6.9,0,0,1,3.47-.95c.2.21.31.42.47.47s.27-.2.42-.3l0-.11.92.16.08.12-.55.36.09.11.56-.41.37.35a.3.3,0,0,0-.11,0,2.19,2.19,0,0,0-1.75,1.23A2.25,2.25,0,0,1,127,23.4a.66.66,0,0,0-.16.42c0,.15.08.31.07.49l-.22-.54-1.14.26-.16,0a1.43,1.43,0,0,0-1.1,1.94.53.53,0,0,0,.44.28,1.19,1.19,0,0,0,.58-.36,2.66,2.66,0,0,0,.3-.61l.14.05a6.65,6.65,0,0,1-.1.78c-.06.27,0,.39.28.3s.54,0,.53.42.27.51.6.56Z"/>
  <path d="M122.14,70.5v3.21h11V70.5c.33,0,.63,0,.93,0a.34.34,0,0,1,.22.19c.44,1.12.86,2.24,1.33,3.48-5.33.16-10.52,0-15.74,0A8.87,8.87,0,0,1,121,70.65a.46.46,0,0,1,.31-.15C121.58,70.48,121.83,70.5,122.14,70.5Z"/>
  <path d="M130.1,33.62c-2.22,1.19-6.39.08-8.06-2.21a9,9,0,0,0,3.44-.24c.74-.18,1.46-.42,2.17-.66.24-.08.42-.09.53.13a1,1,0,0,0,1,.52c.41,0,.44.22.49.54C129.79,32.33,130,33,130.1,33.62Z"/>
  <path d="M122.31,22.83a3.56,3.56,0,0,0,.42,2.94l.12,0c0-.12,0-.24,0-.36l.08,0c.09.2.2.4.27.6a1,1,0,0,0,1.3.7.36.36,0,0,1,.2,0c.63.27,1.36.32,1.86.89.26.3.59.14.92,0-.05.06-.09.16-.15.19a11.58,11.58,0,0,1-6,1.05.48.48,0,0,1-.45-.43,6,6,0,0,1,.28-3.54A5.14,5.14,0,0,1,122.31,22.83Z"/>
  <path d="M128.19,30.36c1-.52,2-1,3-1.56.48-.25.92-.58,1.42-.78a1.29,1.29,0,0,1,.82.12c.07,0,0,.37,0,.56.11.76-.48,1.09-.94,1.45a1,1,0,0,0-.3,1.43l.29.64a4.9,4.9,0,0,1-2.06,1.25c-.07,0-.34-.25-.38-.41-.14-.58-.19-1.18-.33-1.75a.55.55,0,0,0-.46-.3A1.16,1.16,0,0,1,128.19,30.36Z"/>
  <path d="M123.86,21.09c.12-.37.2-.64.29-.91L123,20l0-.15a2.41,2.41,0,0,1,.59-.35,11.33,11.33,0,0,1,1.82-.3,11.51,11.51,0,0,1,6,1,10.9,10.9,0,0,1,1.81,1.12,1.88,1.88,0,0,1,.66,1c.07.26-.17.6-.31,1a8.1,8.1,0,0,0-4.45-2.87A7.43,7.43,0,0,0,123.86,21.09Z"/>
  <path d="M134,29.16l.76,1.46c-.42.5-.86,1.06-1.35,1.59a.37.37,0,0,1-.62-.14,6.45,6.45,0,0,1-.44-1.13.37.37,0,0,1,.11-.32C133,30.12,133.47,29.64,134,29.16Z"/>
  <path d="M134.42,29.52l-.27-.81-.53.44c0-.27,0-.48,0-.68,0-.52-.06-.59-.58-.61h-.28l1.76-1.64A5.68,5.68,0,0,1,134.42,29.52Z"/>
  <path d="M122.93,20.18l.91.22a16.38,16.38,0,0,1-.6,1.62c0,.09-.41.08-.61,0s-.21-.25-.18-.35C122.59,21.19,122.77,20.69,122.93,20.18Z"/>
  <path d="M135,71.59a13.77,13.77,0,0,1,1.67,4.1C135.59,74.49,135.64,72.9,135,71.59Z"/>
  <path d="M118.62,75.38c.48-1.15.95-2.3,1.43-3.46l.07,0c-.15.71-.28,1.42-.46,2.11-.06.22-.28.4-.42.6s-.33.52-.5.78Z"/>
  <path d="M120.66,28.69c-.2-.16-.51-.28-.58-.48-.14-.39.12-.72.4-1.06.1.51.18,1,.27,1.43Z"/>
  <path d="M129.09,26.82l-1.44.71-.07-.08.86-.86.07.37a.9.9,0,0,1,.2-.19,1.83,1.83,0,0,1,.33-.11Z"/>
  <path d="M134.88,30.27c-.29-.33-.29-.33,0-.92.05.3.09.6.13.9Z"/>
</svg>
