<svg class="{{ .class }}" xmlns="http://www.w3.org/2000/svg" width="170" height="97.5" viewBox="0 0 170 97.5">
  <path d="M52,30l.37.06a9.26,9.26,0,0,1,5.56,2,8,8,0,0,1,2.72,4.54A21.62,21.62,0,0,1,61,38.74a13.13,13.13,0,0,1,.07,1.54V63c0,.67-.07.76-.72.79l-1.89.07L55.7,64c-.35,0-.7,0-1.05.06a.58.58,0,0,1-.64-.61V52.84H48.84V63.71c0,.56-.2.69-.72.74l-2.87.24-1.88.13-1,.11a.53.53,0,0,1-.54-.46,2.08,2.08,0,0,1,0-.25c0-8.41,0-16.81,0-25.21a9.47,9.47,0,0,1,1.53-5.23,7.8,7.8,0,0,1,5-3.4c.76-.17,1.55-.21,2.33-.32a.94.94,0,0,0,.15-.06Zm2,16.22v-.37c0-2,0-4.06,0-6.09a6.55,6.55,0,0,0-.19-1.6,1.75,1.75,0,0,0-1.44-1.44A6.59,6.59,0,0,0,51,36.66a2,2,0,0,0-1.77,1.12,3.86,3.86,0,0,0-.42,1.85c0,2.09,0,4.18,0,6.28,0,.1,0,.2,0,.31Z"/>
  <path d="M150.5,67.18c-.25.45-.66.26-1,.24-.6,0-1.19-.16-1.79-.24l-2.24-.3c-.39,0-.77-.11-1.16-.13s-.72-.22-.72-.73q0-13,0-26a3.75,3.75,0,0,0-.44-1.88,1.94,1.94,0,0,0-1.49-1,3.85,3.85,0,0,0-1.55.08A2,2,0,0,0,138.68,39a7.65,7.65,0,0,0-.13,1.59q0,12.33,0,24.68a1.52,1.52,0,0,1-.06.42.48.48,0,0,1-.54.36l-2.52-.31-1.93-.19c-.39,0-.79-.07-1.18-.13a.54.54,0,0,1-.44-.61V31.22c0-.52.15-.66.66-.66,2.92,0,5.85,0,8.78,0a10,10,0,0,1,5.34,1.49,7.58,7.58,0,0,1,2.55,2.81,11.35,11.35,0,0,1,1.17,3.63c.06.33.09.67.13,1Z"/>
  <path d="M19.5,30.68a2.26,2.26,0,0,1,.6-.17c3.1,0,6.2,0,9.31,0a10.45,10.45,0,0,1,4.69,1.06,7.51,7.51,0,0,1,3.71,4.18,11.94,11.94,0,0,1,.69,2.89A47.24,47.24,0,0,1,38.62,44a13.12,13.12,0,0,1-.8,4.89,7.48,7.48,0,0,1-3.2,3.89A9.81,9.81,0,0,1,31,54a33.35,33.35,0,0,1-3.87.11H26.6v.38c0,3.87,0,7.73,0,11.6,0,.44-.09.56-.62.64l-2.54.37-2,.26-1.2.17a.67.67,0,0,1-.77-.3Zm7.11,16.79c1,0,2,0,2.93,0a1.71,1.71,0,0,0,1.56-1,4.16,4.16,0,0,0,.35-1.66c0-1.44,0-2.88,0-4.31a9,9,0,0,0-.13-1.65,2.17,2.17,0,0,0-.89-1.57,2.29,2.29,0,0,0-1.24-.36c-.77,0-1.54,0-2.31,0l-.27,0Z"/>
  <path d="M97.18,30c.27,0,.55.09.83.12a8.78,8.78,0,0,1,4.46,1.72A6.8,6.8,0,0,1,104.25,34a8.65,8.65,0,0,1,1.07,3.49c.11,1.25.07,2.52.07,3.77,0,.28-.23.39-.47.39-1.88,0-3.75,0-5.63,0a.46.46,0,0,1-.49-.51c0-.7,0-1.41,0-2.11a2.34,2.34,0,0,0-1.13-2,1.88,1.88,0,0,0-.79-.28,2.46,2.46,0,0,0-2.58,1,2.53,2.53,0,0,0-.35,1,3.19,3.19,0,0,0,.87,2.76,20.76,20.76,0,0,0,2.73,2.23q1.88,1.36,3.72,2.78a15,15,0,0,1,1.41,1.23A9.18,9.18,0,0,1,105.19,52a11.21,11.21,0,0,1,.26,3.36,9.74,9.74,0,0,1-1,4,7.44,7.44,0,0,1-2.86,3,8.92,8.92,0,0,1-3.62,1.17,16.08,16.08,0,0,1-2.4.12,9.41,9.41,0,0,1-5.37-1.85,8.34,8.34,0,0,1-3-4.7,9.73,9.73,0,0,1-.27-2.09c0-1,0-2,0-3,0-.46.15-.61.63-.61h5.32a.57.57,0,0,1,.65.64c0,.92,0,1.84,0,2.76a2.63,2.63,0,0,0,4.63,1.63,2.29,2.29,0,0,0,.47-1.73,4.52,4.52,0,0,0-.49-1.93,4.68,4.68,0,0,0-1.23-1.46c-1.77-1.34-3.55-2.68-5.3-4.05a24,24,0,0,1-2.23-1.92,7.69,7.69,0,0,1-2.09-3.93A11.57,11.57,0,0,1,88,34.18a7.11,7.11,0,0,1,2.87-3,9.33,9.33,0,0,1,3.5-1.08l.79-.12Z"/>
  <path d="M115.87,43.33c0,4,0,8,0,12a2.7,2.7,0,0,0,.86,2.15,1.57,1.57,0,0,0,.57.33,3.65,3.65,0,0,0,2.44-.1A2.14,2.14,0,0,0,121,56.09a5,5,0,0,0,.13-1.15q0-11.79,0-23.56c0-.53.18-.84.82-.83,1.86,0,3.72,0,5.58,0,.51,0,.71.2.71.7,0,7.8,0,15.59,0,23.38a12.65,12.65,0,0,1-.68,4.17,7.91,7.91,0,0,1-6,5.45,13.65,13.65,0,0,1-4.08.3,9.74,9.74,0,0,1-4-1,7.54,7.54,0,0,1-3.35-3.33,10.16,10.16,0,0,1-1.1-3.65,14.71,14.71,0,0,1-.12-1.62c0-2.29-.06-4.57-.07-6.86,0-5.54,0-11.09,0-16.63A3.47,3.47,0,0,1,109,31a.46.46,0,0,1,.51-.42h5.83a.56.56,0,0,1,.57.56,1.93,1.93,0,0,1,0,.24Z"/>
  <path d="M64.41,46.85c0-2.15,0-4.31,0-6.46a13.66,13.66,0,0,1,.8-4.86,8.45,8.45,0,0,1,1.58-2.66,8.19,8.19,0,0,1,4.73-2.57,12.68,12.68,0,0,1,3.19-.23,10.09,10.09,0,0,1,5.17,1.53,7.3,7.3,0,0,1,2.87,3.7,10.53,10.53,0,0,1,.65,3.18c0,.86,0,1.71.06,2.57a.45.45,0,0,1-.51.51H77.51c-.34,0-.49-.19-.52-.55a23,23,0,0,0-.19-2.35,2.13,2.13,0,0,0-2-1.83,2.94,2.94,0,0,0-2.09.37,2,2,0,0,0-.81,1.18,7.4,7.4,0,0,0-.26,1.75c0,3.58-.05,7.16-.07,10.74,0,.89,0,1.78,0,2.67a15.69,15.69,0,0,0,.24,2.16,1.8,1.8,0,0,0,1.69,1.54,4,4,0,0,0,1.91-.1,2.11,2.11,0,0,0,1.37-1.77,12.47,12.47,0,0,0,.13-1.5c0-.68,0-1.36.07-2a.47.47,0,0,1,.53-.5h5.54a.4.4,0,0,1,.4.45c0,.91,0,1.83,0,2.74a11.61,11.61,0,0,1-1.07,4.4,7.89,7.89,0,0,1-3,3.28,8.09,8.09,0,0,1-3.38,1.24,16.43,16.43,0,0,1-2.42.18,10.56,10.56,0,0,1-4.46-1,7.77,7.77,0,0,1-3.87-4.24,10.05,10.05,0,0,1-.76-3.28c-.06-1.41-.1-2.82-.12-4.24S64.41,48.19,64.41,46.85Z"/>
</svg>
