<svg class="{{ .class }}" xmlns="http://www.w3.org/2000/svg" width="170" height="97.5" viewBox="0 0 170 97.5">
  <path d="M62.05,71.58l.89-1.22.11-.44.67-.78,1-1.22.77-.77.78-.78.45-.44.45-.45.44-.44.22-.11.23.11-.11.33-.67.89-.67,1.22-.67.78L64.73,70l-.67.66-.67.45-.45.44-.67.78-1.11,1.21-.44.56-.67.89-.78.88,2.78-4.32Z" fill-rule="evenodd"/>
  <path d="M68,77.23l.22-.66.33-.45.34-.77.33-.56.22-.55.11-.67V73l.23-.55.33-.67.34-.88.11-.56.33-.44.22-.56.12-.33L71,68.81l-.11-.22.34-.67.33-.55L72,66.7,72.3,66l.33-.33.56-1,.56-1,.67-.44L75,62.6l.56-.55.67-.89.11-.22.56-.55-.11.44-.12.77-.44.89-.11.56-.11.44-.23.55v.45l-.11.22v.22l.11.22v1.11l-.22.67-.45.66-.44.78-.45.66-.33.67-.45.66-.55.44-.23.12-.44.55-.56.77-.44.67-.45.33-.22.45L70.3,74l-.12.44L70,75l-.33.44-.45.33-.33.44-.34.45-.11.22-.22.33-.22.33v-.33Z" fill-rule="evenodd"/>
  <path d="M88.67,56.51l.12.44v.22l.11.44-.34.67-.22.44.22.89.56,1.66.33,1.44L89.79,64l.44,1.11.89,1,.56.44.67.34.33.33.45.77.56,1,.44.78.45,1.11.55.77.56,1,.22.88.45.78.33.78.45,1,.22.56.34.88.33.67.33.55.12.45.22.33.22.44.22.22.23.34.11-.22.11-.45-.11-.33.11-.33-.11-.33-.11-.23-.12-.22L99.14,78l-.22-.34-.22-.44-.11-.55v-.33l-.11-.23v-.33l.11-.33.22-.11V75l-.11-.45L98.48,74l-.23-.45-.44-.44-.34-.44L97.14,72l-.22-.66-.23-.56-.22-.33-.33-.89-.23-.88-.33-.56-.11-.33-.11-.33.22-.33.22-.22v-.45l-.22-.55-.11-.45L95.13,65l-.22-.33-.11-.45-.22-.33-.34-.55L94,62.94l-.22-.56-.45-.66-.22-.56-.67-.77L92,59.83l-.12-.22-.44-.55-.34-.67L90.79,58l-.33-.67L90.23,57l-.44-.78-.56-.77-.33-.56-.34-.55-.44-.55L87.56,53l1.11,3.55Z" fill-rule="evenodd"/>
  <path d="M94.91,58.28l.45.44.55.67.56.55.67.67.67.66.67.78.44.55.67.67.22.44.23.22.11.33.11.78.11.44.33.34.56.55.78.89.67.55.67.56,1.22,1.1.34.45.22.44.22.44.34.45.33.44.45.67.22.55.33.55.45.56.22.66.34.34.22.55.22.33.22.56.34.55.44.66.34.78-.67-.89-.67-.88-1.22-1.44-.9-.89-.66-.66-.56-.78-.67-.55-.56-.67-.44-.33-.56-.11-.33-.11-.34-.34-.22-.44-.33-.33-.56-.67-.56-.55-.44-.44L99.81,68l-.33-.55-.34-.67-.33-.55-.33-.78L98,64.71l-.67-1.33-.44-.78-.45-1-.33-.66-.45-.78-.22-.55-.34-.55L94.91,59v-.23l-.22-.33-.22-.66.44.55Z" fill-rule="evenodd"/>
  <path d="M104.71,64.71l.45.55.44.67.23.33.11.44v.67l.22.33.34.33.33.56.56.44.44.67.45.33.33.44,1,1.11.45.55.45.45.33.33.45.44-.67-1.11-.78-1-.45-.78-.22-.33-.22-.33V69l-.12-.33-.22-.33-.67-.78-.66-.78-.67-.66-.67-.56-.56-.55-.44-.55-.56-.34.33.56Z" fill-rule="evenodd"/>
  <path d="M60.72,25l-.56,2.33,2.11,1.33-2.45.22-.55,2.33-1-2.22-2.45.11,1.9-1.55-1-2.22,2.11,1.22L60.72,25Z" fill-rule="evenodd"/>
  <path d="M92.24,18.16,90,19.38l.56,2.44-1.78-1.67-2.12,1.33v-.11l1-2.21-1.89-1.67,2.45.23,1-2.22.56,2.44,2.45.22Z" fill-rule="evenodd"/>
  <path d="M75.75,18.49l-1.45,2,1.45,2v.11l-2.34-.88L72,23.7V21.26l-2.34-.88L72,19.71V17.27h.11l1.33,2,2.34-.78Z" fill-rule="evenodd"/>
  <path d="M83.77,17.49,82,19.16l1,2.21h-.11l-2-1.22L79,21.82l.56-2.44-2.12-1.22v-.11l2.45-.22.45-2.33,1,2.22,2.45-.23Z" fill-rule="evenodd"/>
  <path d="M67.84,21.15l-1.11,2.22L68.51,25l-2.34-.33-1.11,2.21-.45-2.43-2.45-.34L64.39,23,64,20.6l1.67,1.66,2.22-1.11Z" fill-rule="evenodd"/>
  <path d="M45.79,43.43l.67,2.44h2.45l-2,1.33.78,2.32-2-1.44-2,1.33.78-2.21-1.89-1.44v-.11l2.34.11.89-2.33Z" fill-rule="evenodd"/>
  <path d="M49.46,36.34l.34,2.43,2.45.45-2.23,1,.34,2.44-1.67-1.77-2.34,1,1.22-2.11L45.9,38l2.34.44,1.22-2.1Z" fill-rule="evenodd"/>
  <path d="M54.59,30l-.11,2.44,2.23.88v.11L54.37,34l-.12,2.33v.11l-1.33-2.11-2.45.56L52,33,50.8,31V30.9l2.23,1L54.59,30Z" fill-rule="evenodd"/>
  <path d="M43.23,50.85h.11l1.11,2.22,2.45-.44L45.12,54.4l1.23,2.11h-.12L44.12,55.4l-1.78,1.77.33-2.44-2.12-1.11,2.34-.33.34-2.44Z" fill-rule="evenodd"/>
  <path d="M44.79,75.24h.11L47,76.35l1.79-1.67-.45,2.44,2.12,1.11L48,78.56,47.57,81l-1.11-2.22L44.12,79l1.78-1.56-1.11-2.21Z" fill-rule="evenodd"/>
  <path d="M42.89,67.26l1.78,1.55L46.9,67.7l-1.11,2.22,1.89,1.55-2.45-.22-1.11,2.21L43.67,71l-2.45-.23,2.12-1.22-.45-2.32Z" fill-rule="evenodd"/>
  <path d="M42.22,59l1.56,1.88,2.34-.78-1.45,2,1.56,2h-.11l-2.34-.77-1.44,2V62.82L40,62.16l2.34-.78L42.22,59Z" fill-rule="evenodd"/>
  <path d="M127.55,46.2l-1.9,1.44.78,2.33h-.11l-1.89-1.44-2,1.44.78-2.33-2-1.44h2.45l.78-2.33.67,2.33Z" fill-rule="evenodd"/>
  <path d="M123.54,42l-2.23-1-1.67,1.77.33-2.43-2.22-1,2.45-.44.33-2.44,1.11,2.1,2.45-.44-1.67,1.77L123.54,42Z" fill-rule="evenodd"/>
  <path d="M119.64,35.12v.11l-2.45-.67-1.34,2.11-.11-2.44-2.34-.55,2.23-.89-.11-2.55,1.56,1.88,2.23-.88h.11l-1.34,2,1.56,1.89Z" fill-rule="evenodd"/>
  <path d="M114.4,29.35,112,29.13l-1,2.22L110.39,29l-2.45-.22,2.12-1.22-.56-2.44,1.9,1.55,2.11-1.21-1,2.21,1.89,1.66Z" fill-rule="evenodd"/>
  <path d="M107.94,24.37l-2.45.22L104.94,27l-1-2.22-2.45.22,1.9-1.66-1-2.22,2.12,1.22,1.78-1.66L105.83,23l2.11,1.33Z" fill-rule="evenodd"/>
  <path d="M100.37,20.49l-2.23.77v2.55l-1.45-2-2.34.88v-.11l1.45-2-1.45-1.89V18.6l2.34.78,1.34-2v2.33l2.34.78Z" fill-rule="evenodd"/>
  <path d="M128.55,71.14l-2.45.22-.56,2.33-.89-2.22-2.45.22L124.09,70l-.89-2.22,2,1.22,1.89-1.55-.55,2.33,2,1.33Z" fill-rule="evenodd"/>
  <path d="M125.88,79.12l-2.45-.34-1,2.22L122,78.67l-2.45-.33,2.11-1.22-.44-2.44L123,76.35l2.12-1.11h.11l-1.12,2.1,1.79,1.78Z" fill-rule="evenodd"/>
  <path d="M130,62.94h-.11l-2.34.66L127.33,66l-1.23-2.11-2.34.56h-.11l1.67-1.89-1.23-2.1,2.23.88,1.56-1.77-.22,2.44,2.34.89Z" fill-rule="evenodd"/>
  <path d="M129.55,54.73l-2.22,1,.22,2.44L126,56.29l-2.23,1h-.11l1.34-2.1-1.67-1.89,2.45.56L127,51.74l.22,2.44,2.34.55Z" fill-rule="evenodd"/>
  <path d="M80.19,42.85c-.11.22,0,.55.22.44,1.45-.55,1.79-1.88,2.45-3C81.64,40.08,80.64,41.74,80.19,42.85Z" fill-rule="evenodd"/>
  <path d="M71.61,43.07a.34.34,0,0,0,.45.22c1.34-.66,1.78-2,2.45-3.1C73.28,39.86,72,41.74,71.61,43.07Z" fill-rule="evenodd"/>
  <path d="M85,23.15a36.92,36.92,0,0,0-32.19,55.3l3.45-3.66,3.34-4.32,3.9-4.21,7.91-9.09.89-1.11,1.11-.22.67-.44L78,51.74l1.56-1.33,4.79-3.77.89-.44,1.11.22,1.34,1.33L90,50l1.78.44,2.79,2.33,3.56,3.32,2.23.89,3,2.11,2.45,2.88,3.45,4.76L112,69.58l2.12,3,1.56,1.55L117.08,76l1,1.55c3.12-5.09,4-11.63,4-17.51A37,37,0,0,0,85,23.15ZM62.26,48c-1.45.44-3.57.66-4.9-.23a2.87,2.87,0,0,1-1-1.88,1.66,1.66,0,0,1,.34-1.44c.22-.44.89-.44,1.22-.33s.56.44.45.77c-.11.56-.67.89-.67,1.55s.78.89,1.23,1A3.51,3.51,0,0,0,62,47c3.56-3,2.89-8.31,7.24-10.42l.55-.11C68.5,37.86,68.27,39.3,67.72,41c0,.12.44,0,.66,0A3.77,3.77,0,0,0,71,37.2a2.74,2.74,0,0,0-1.9-2.44,7.19,7.19,0,0,0-7.91,1.77,4.73,4.73,0,0,0-1.33,4.55,1.45,1.45,0,0,0,1.11,1,1.79,1.79,0,0,0,1.67,0c.89-.22-1-2,1.23-2,.22,0,.44.33.44.66a1.88,1.88,0,0,1-.67,1.66,4.46,4.46,0,0,1-3.56.67,3.49,3.49,0,0,1-2-1.55,4.13,4.13,0,0,1,.34-3.77,9.51,9.51,0,0,1,7.91-4.32c2.45-.11,4.9.55,6.24,2.55a3.66,3.66,0,0,1-.12,3.54,6.58,6.58,0,0,1-5,2.44A8,8,0,0,1,62.26,48Zm46-2.89c-.44,0-1.34-.33-1.45-.77v-.56a2.59,2.59,0,0,1-2.45.67c-.33-.22-.22-.67-.11-1,.34-1,.56-1.44,1-2.55-.11-.22-.33,0-.44,0-1.45,1.11-1.56,2.22-2.23,3.55h-1.45l.45-.78a2.62,2.62,0,0,1-1.23.67c-.33.11-.78.44-1.22.11-.23-.22-.11-.44-.23-.67-.66.56-1.44,1.11-2.34.67-.44-.22-.22-.78-.11-1.11l.78-1.88c-.22.11-.67.22-1,.33-.67,1.44-1.78,2.88-3.56,3a1.66,1.66,0,0,1-1.12-1c-.11-.11.11-.11,0-.11a2.42,2.42,0,0,1-2.45.78c-.44-.22-.22-.89-.11-1.33.45-1,.34-.89.89-2,.22-.78-.67-.45-.78-.12-1,1.22-1,2.11-1.67,3.33a6.39,6.39,0,0,1-1.45,0c.56-1.22,1.12-2.11,1.67-3.44,0-.11,0-.33-.11-.33-.78.11-1,.78-1.44,1.33L84.87,44.4H83.64a1.67,1.67,0,0,1,.23-.78,2.43,2.43,0,0,1-2.12.78.87.87,0,0,1-.22-.89c-.45.11-.78.56-1.12.78a2.75,2.75,0,0,1-1.33.11c-.67-.78-.11-1.77.33-2.44l.45-.55c-.34-.11-.78.22-1.12-.11l-.22-.56c-1.11,1-1.23,2.22-1.89,3.55H75.4c0-.44.11-.33.34-.78-.78.56-1.45,1.11-2.46.67-.22-.22-.11-.56-.22-.78-.67.56-1.45,1.22-2.45.78a.84.84,0,0,1-.22-1.11,5.9,5.9,0,0,1,3.68-3.77,3.09,3.09,0,0,1,2,.22L74.4,42.85c0,.22,0,.44.22.55,1.78-.77,2-2.55,2.79-3.88h1.22c0,.34-.33.67-.22.89.56-.44,1.11-1.22,1.78-1.11.22.56-.67,1-.33,1.55.78-.11,1.33-.88,2-1.11a3,3,0,0,1,2.56-.22c-.44,1.22-1.11,2.33-1.67,3.55,0,.22,0,.33.23.33.78-.22.89-.88,1.44-1.33l1.45-2.55H87a1.49,1.49,0,0,0-.23.67c.67-.45,1.34-1,2.23-.67.22.22.22.45.34.67.66-.56,1.44-1.11,2.33-.56.23.34,0,.56-.11.78a17.1,17.1,0,0,0-1.22,3c.11.22.33.11.44,0,1.45-.88,1-2.1,2.23-3.21.89-.67,1.89-1.22,3-.67.44.34.33.89.44,1.33a1.92,1.92,0,0,0,1.79-1.22,2.3,2.3,0,0,1,1.22,0L97.9,43.18a.4.4,0,0,0,.11.33c1.78-.77,1.9-2.43,2.68-3.88a5.38,5.38,0,0,1,1.33,0c-.44,1.22-1.11,2.11-1.56,3.33,0,.22-.22.55.11.44,1.57-.88,2.12-2.21,2.79-3.77a4.61,4.61,0,0,1,1.23,0c0,.23-.23.56-.23.78.67-.55,1.45-1.22,2.34-.89.45.34.22.89.11,1.22l-1.22,2.55a.24.24,0,0,0,.22.22c1.56-.66,1.78-2.1,2.56-3.43-.33,0-.55-.11-.78-.11-.22-.78.78-.34,1-.45l1-2h1.11l-.78,2c.23.11.56,0,.89,0,0,.22,0,.56-.22.67h0a5.24,5.24,0,0,1-1-.11l-1.45,3.21c0,.33-.22.78.22,1,.89.11,1.34-.78,1.79-1.44h.77C110,44.4,109.37,45.06,108.26,45.06Z" fill-rule="evenodd"/>
  <path d="M94.67,40.19c-1,.55-1.22,1.33-1.67,2.33,0,.33-.33.77,0,1.1.11.23.33.11.45,0A6.25,6.25,0,0,0,95,40.41C95,40.19,94.78,40.08,94.67,40.19Z" fill-rule="evenodd"/>
</svg>
