<svg class="{{ .class }}" xmlns="http://www.w3.org/2000/svg" width="170" height="97.5" viewBox="0 0 170 97.5">
  <path d="M66,60c-4.73,0-9.11-1.42-12-4a9.88,9.88,0,0,1-3.28-7.47A10,10,0,0,1,54,41c2.72-2.49,7.52-4,12-4,5,0,9,1.26,12.07,4a10,10,0,0,1,3.24,7.44A10.34,10.34,0,0,1,78.06,56C75.21,58.6,70.73,60,66,60V57a9.06,9.06,0,0,0,6.46-2.49,8,8,0,0,0,2.37-6,8.31,8.31,0,0,0-2.37-6,9.7,9.7,0,0,0-12.93,0,8.82,8.82,0,0,0,0,12A9.19,9.19,0,0,0,66,57Z"/>
  <path d="M31.44,37a19.64,19.64,0,0,0-7.84,1.57c-2.25,1-4.1,2.63-4.1,5.33A5.52,5.52,0,0,0,21,47.72,8.29,8.29,0,0,0,25.47,50c1.24.27,3.88.69,6.51,1s5.17.54,6.22.8c.83.21,2.22.5,2.22,2.07a2.34,2.34,0,0,1-1.72,2.14,13,13,0,0,1-5.19.91,21.86,21.86,0,0,1-6.18-1.07,7.5,7.5,0,0,1-3.58-2.39A4.11,4.11,0,0,1,23,51.11H20.14v8h3.19V58.07a.45.45,0,0,1,.69-.39,25.43,25.43,0,0,0,4.66,1.51,20,20,0,0,0,4.84.6A20.72,20.72,0,0,0,40,58.87,11.44,11.44,0,0,0,43.87,57a5.32,5.32,0,0,0,2.06-4.24,5.88,5.88,0,0,0-1.67-4.16,7.06,7.06,0,0,0-2.06-1.41,15.36,15.36,0,0,0-2.54-.89c-1.64-.4-5.36-.9-7.14-1.09a48.63,48.63,0,0,1-6.39-.86,1.54,1.54,0,0,1-1.19-1.43A2,2,0,0,1,26,41.22a12.46,12.46,0,0,1,5.87-1.17,17.14,17.14,0,0,1,6.8,1.33,7.81,7.81,0,0,1,1.62,1A4.84,4.84,0,0,1,41.91,45h2.58V38H41.61v.81c0,.26-.27.6-.78.32A22,22,0,0,0,31.44,37Z"/>
  <path d="M94.47,38.28,108.5,51l-.14-8.53c0-1.12-.22-1.59-1.43-1.59h-2.64V38.29h12v2.55h-2.58c-1.23,0-1.31.39-1.32,1.59l.21,16.3h-4.1L92.34,44.29V54.54c0,1.12.07,1.64,1.21,1.64h2.88v2.55H84.65V56.18h2.76c1,0,1-1,1-1.7v-12c0-.77-.1-1.68-1.72-1.68H84.44V38.28Z"/>
  <path d="M130,56.17a5.27,5.27,0,0,0,.7,0,.89.89,0,0,0,.56-.49,3.51,3.51,0,0,0,.05-.55v-4c0-.09,0-.14-.17-.35s-7.35-8.37-7.67-8.73a3,3,0,0,0-2.21-1.13h-2.5V38.29h14.07v2.55h-1.69c-.4,0-.66.37-.32.78l4.78,5.73c0,.06.08.08.14,0s4.85-5.69,4.89-5.74a.49.49,0,0,0-.42-.79h-1.74V38.29H150v2.55h-2.58a2.17,2.17,0,0,0-2,1c-.33.36-7.57,8.64-7.77,8.86a.57.57,0,0,0-.09.38v4a3.51,3.51,0,0,0,0,.55.89.89,0,0,0,.56.49,5.27,5.27,0,0,0,.7,0h2.63v2.56h-14V56.17Z"/>
</svg>
