<svg class="{{ .class }}" xmlns="http://www.w3.org/2000/svg" width="170" height="97.5" viewBox="0 0 170 97.5">
  <path d="M101.18,58.81v7.57H112V52.86h-4.06C102.33,52.64,101.18,58.81,101.18,58.81ZM144.5,37.23H125.57l-4.18,6.42V37.23s-4.57-.53-9.42,4.29V37.23H101.18V45s1.15,6.16,6.73,5.94H112v-.32c3.56-3.54,7-4.2,8.52-4.3h7.36L115,66.38h23.42l5.93-9.12h-12.7Z"/>
  <path d="M92.16,51a4.33,4.33,0,0,0,.81,0c4.88-.58,5.91-5.91,5.91-5.91v-7.8H88.1V40.1a12.4,12.4,0,0,0-8.48-3.44c-5.2,0-9.71,3.36-11.92,8.27v-7.7H61.93V29.5H51.15V53.77C49.63,49.88,45,48.11,40,47.16c-3.2-.59-4.31-.5-4.37-2s1.7-1.64,3.63-1.64c2.33,0,6,2.11,6,2.11l3.95-6.19c-3.11-1.93-5.77-3.14-11.83-3.14S25.5,40,25.5,45.54s4.19,8.57,11.11,9.65c3.63.57,5.2,1.28,5.12,2.7,0,1-.91,2.19-3.41,2.08a12.69,12.69,0,0,1-8.39-3.7l-4.35,6.4a19.07,19.07,0,0,0,12.11,4.17c7.62,0,11.91-2.42,13.46-6.84.06-.17.11-.34.16-.51.38,1.83,1.58,5.54,5.23,6.89a8.74,8.74,0,0,0,3,.52,54.18,54.18,0,0,0,8.21-.52V60c-5.38,0-5.83-3.52-5.86-4.37V46.35h5.21a16.71,16.71,0,0,0-.91,5.48c0,8.38,6,15.17,13.39,15.17a12.4,12.4,0,0,0,8.48-3.44v2.82H98.88V58.81s-1-5.35-5.92-5.92a5.25,5.25,0,0,0-.8,0H88.1v.36a6,6,0,1,1,0-2.64V51Z"/>
</svg>
