<svg class="{{ .class }}" xmlns="http://www.w3.org/2000/svg" width="170" height="97.5" viewBox="0 0 170 97.5">
  <title>Western Union</title>
  <path d="M13.5,37.26h3.56l.85,6.29h0l.93-6.29H23l.94,6.29h0l.86-6.29h3.56l-2.17,10H21.88L21,40.78h0L20,47.25H15.67Z"/>
  <path d="M30.69,37.26h7.65v2.61H34.51v1.06h3.54v2.6H34.51v1.12h4v2.6H30.69Z"/>
  <path d="M46.5,40.1a.77.77,0,0,0-.88-.83c-.64,0-.92.28-.92.58s.24.51.65.64a27.29,27.29,0,0,1,3.19.93A2.65,2.65,0,0,1,50.37,44c0,2.45-2,3.48-4.85,3.48-2.42,0-4.65-.75-4.65-3.35h3.82a1.23,1.23,0,0,0,.21.76.93.93,0,0,0,.77.32.88.88,0,0,0,1-.82c0-.37-.3-.56-.67-.67l-2.83-.83a2.55,2.55,0,0,1-2.09-2.68c0-2.07,1.69-3.25,4.62-3.25,2.51,0,4.39.78,4.39,3.1Z"/>
  <path d="M55,40H52.52V37.26h8.94V40H59v7.3H55Z"/>
  <path d="M64.05,37.26h7.64v2.61H67.87v1.06H71.4v2.6H67.87v1.12h3.95v2.6H64.05Z"/>
  <path d="M74.66,37.26h6c2.16,0,3.42.65,3.42,2.54a2.24,2.24,0,0,1-2,2.38v0a1.68,1.68,0,0,1,1.7,1.28,37.54,37.54,0,0,0,.65,3.77h-3.9a25.71,25.71,0,0,1-.5-2.86c-.08-.5-.33-.69-1-.69h-.46v3.55h-3.9Zm4.23,4.17c.77,0,1.33-.26,1.33-1s-.52-.89-1.3-.89h-.36v1.9Z"/>
  <path d="M87.06,37.26h4.77L94,43.31h0V37.26h3.23v10H92.44l-2.13-6.08h0v6.08H87.06Z"/>
  <path d="M50.28,55.87c0,2.41-1.74,3.62-4.77,3.62s-4.78-1.21-4.78-3.62V49.23h4v6.48c0,.78.38,1.09.8,1.09s.79-.31.79-1.09V49.23h4Z"/>
  <path d="M53.47,49.23h4.78l2.13,6.05h0V49.23h3.23v10H58.86l-2.13-6.09h0v6.09H53.47Z"/>
  <path d="M66.89,49.23h4v10h-4Z"/>
  <path d="M79,49c3.47,0,5.2,2.14,5.2,5.26s-1.73,5.26-5.2,5.26-5.19-2.15-5.19-5.26S75.5,49,79,49m0,7.91c.62,0,1.07-.34,1.07-2.65S79.6,51.57,79,51.57s-1.07.4-1.07,2.66.46,2.65,1.07,2.65"/>
  <path d="M87.06,49.23h4.77L94,55.28h0V49.23h3.23v10H92.44l-2.13-6.09h0v6.09H87.06Z"/>
  <path d="M134.7,37.12H133l-1.9,14H131l-2.08-14h-9.19l-2.09,14h-.06l-1.89-14h-8l4.84,22.29h9.64L124.33,45h.07l2.08,14.44h9.63l.48-2.23a7.33,7.33,0,0,1-1.89-5.24Z"/>
  <path d="M147.12,37.12V51.57c0,1.76-.84,2.44-1.77,2.44s-1.77-.68-1.77-2.44V37.12h-1.9l-4.47,20.61c1.81,1.5,4.56,2.27,8.14,2.27,6.77,0,10.65-2.69,10.65-8.06V37.12Z"/>
  <path d="M102,37.12h-1.32l4.76,22.29h1.32Z"/>
  <path d="M109,59.41h1.32l-4.76-22.29h-1.32Z"/>
</svg>
