<svg class="{{ .class }}" xmlns="http://www.w3.org/2000/svg" width="170" height="97.5" viewBox="0 0 170 97.5">
  <title>Yahoo</title>
  <path d="M101.3,62.5a17.63,17.63,0,0,1-7.57-1.77c-4.12-2.12-6.22-5.62-6.77-10.15a16.59,16.59,0,0,1,.6-7,11.71,11.71,0,0,1,7.08-7.73A17.29,17.29,0,0,1,108.3,36c4.23,1.81,6.55,5.19,7.28,9.69A16.11,16.11,0,0,1,114.9,54c-1.66,4.46-5,7-9.5,8C104.06,62.25,102.67,62.32,101.3,62.5Zm-10.78-14c.17,1.34.25,2.69.51,4a10.16,10.16,0,0,0,4.23,6.79A11,11,0,0,0,101.8,61a9.6,9.6,0,0,0,9.26-6.54,18.26,18.26,0,0,0,.65-9.47,10.79,10.79,0,0,0-3.22-6.37A10.29,10.29,0,0,0,100.62,36c-4.29.25-7.39,2.28-9,6.38A19.35,19.35,0,0,0,90.52,48.5Z"/>
  <path d="M133.55,62.5A17.63,17.63,0,0,1,126,60.76c-4.13-2.11-6.24-5.61-6.81-10.13a16.58,16.58,0,0,1,.58-7A11.72,11.72,0,0,1,127,35.82a17.38,17.38,0,0,1,13.61.17c4.22,1.82,6.54,5.21,7.26,9.71a16.13,16.13,0,0,1-.69,8.29c-1.65,4.43-4.95,6.95-9.45,8C136.35,62.25,134.94,62.32,133.55,62.5Zm-10.76-14c.16,1.34.25,2.69.51,4a10.15,10.15,0,0,0,4.22,6.79A11,11,0,0,0,134.05,61a9.63,9.63,0,0,0,9.28-6.52,18.38,18.38,0,0,0,.64-9.53,10.78,10.78,0,0,0-3.2-6.31A10.53,10.53,0,0,0,133,36a9.65,9.65,0,0,0-9.06,6.38A19.41,19.41,0,0,0,122.79,48.48Z"/>
  <path d="M79.81,48.35H63.47c.11,4.49.21,8.95.32,13.44H60.08c.42-8.85.42-17.74,0-26.61h3.73c-.1,3.72-.22,7.48-.33,11.35H79.79c-.11-3.82-.22-7.58-.33-11.35H83.2q-.63,13.26,0,26.61H79.48C79.59,57.35,79.7,52.88,79.81,48.35Z"/>
  <path d="M56.74,61.86l-.68,0c-.73,0-1.46-.09-2.19-.06-1.19.06-1.15.08-1.57-1-1.13-3-2.3-5.92-3.48-8.88a.73.73,0,0,0-.53-.37c-3,0-6,0-8.95,0a.78.78,0,0,0-.57.41q-1.76,4.7-3.43,9.43c-.17.47-.33.54-.79.49a17.56,17.56,0,0,0-2.19,0c.27-.61.54-1.21.8-1.82q5.51-12.41,11-24.83c.12-.28.19-.56.63-.55s.49.32.6.6q5,11.93,10.08,23.85C55.86,60,56.29,60.87,56.74,61.86ZM48.15,49.72l-4.29-9.87-4.21,9.87Z"/>
  <path d="M35.81,35.2c-1.14,1.79-2.31,3.54-3.4,5.33-1.88,3.09-3.74,6.2-5.55,9.33a3.31,3.31,0,0,0-.34,1.62c0,3,.13,5.9.21,8.85,0,.48.06,1,.09,1.46H23.08c0-.69.1-1.41.11-2.14.07-2.8.12-5.61.15-8.41a1.54,1.54,0,0,0-.27-.81L14.21,35.5c-.07-.11-.12-.22-.21-.38,1.35,0,2.64,0,3.93,0a.7.7,0,0,1,.48.37c1.73,3.18,3.44,6.37,5.17,9.54.62,1.13,1.27,2.23,2,3.44.16-.24.3-.4.4-.59,2.22-4.09,4.45-8.17,6.65-12.26.21-.38.35-.54.84-.47A17,17,0,0,0,35.81,35.2Z"/>
  <path d="M154.18,55.05h-.75c-.09-1-.2-2.07-.28-3.11q-.57-6.73-1.11-13.47c-.06-.69-.11-1.39-.11-2.08a1.68,1.68,0,0,1,1.95-1.79,1.62,1.62,0,0,1,1.78,1.82c-.09,2-.25,4.07-.42,6.11-.26,3.33-.55,6.67-.83,10C154.34,53.37,154.26,54.2,154.18,55.05Z"/>
  <path d="M153.78,57.77A2.21,2.21,0,1,1,151.62,60,2.17,2.17,0,0,1,153.78,57.77Z"/>
</svg>
